%TF.GenerationSoftware,KiCad,Pcbnew,8.99.0-2433-g53022ab347*%
%TF.CreationDate,2024-09-29T16:09:49+02:00*%
%TF.ProjectId,BadgeTagNFC,42616467-6554-4616-974e-46432e6b6963,1.0*%
%TF.SameCoordinates,PX5058d90PY47868c0*%
%TF.FileFunction,Legend,Top*%
%TF.FilePolarity,Positive*%
%FSLAX46Y46*%
G04 Gerber Fmt 4.6, Leading zero omitted, Abs format (unit mm)*
G04 Created by KiCad (PCBNEW 8.99.0-2433-g53022ab347) date 2024-09-29 16:09:49*
%MOMM*%
%LPD*%
G01*
G04 APERTURE LIST*
%ADD10C,0.000000*%
G04 APERTURE END LIST*
D10*
%TO.C,G\u002A\u002A\u002A*%
G36*
X5642744Y-9380849D02*
G01*
X5796330Y-9387073D01*
X5802343Y-9614804D01*
X5808356Y-9842536D01*
X5648757Y-9842536D01*
X5489158Y-9842536D01*
X5489158Y-9608580D01*
X5489158Y-9374625D01*
X5642744Y-9380849D01*
G37*
G36*
X6739033Y-11028858D02*
G01*
X6739033Y-11261885D01*
X6580150Y-11261885D01*
X6421268Y-11261885D01*
X6421268Y-11028858D01*
X6421268Y-10795830D01*
X6580150Y-10795830D01*
X6739033Y-10795830D01*
X6739033Y-11028858D01*
G37*
G36*
X7882986Y-40528024D02*
G01*
X7882986Y-40708090D01*
X7702919Y-40708090D01*
X7522852Y-40708090D01*
X7522852Y-40528024D01*
X7522852Y-40347957D01*
X7702919Y-40347957D01*
X7882986Y-40347957D01*
X7882986Y-40528024D01*
G37*
G36*
X7882986Y-41333028D02*
G01*
X7882986Y-41513095D01*
X7702919Y-41513095D01*
X7522852Y-41513095D01*
X7522852Y-41333028D01*
X7522852Y-41152961D01*
X7702919Y-41152961D01*
X7882986Y-41152961D01*
X7882986Y-41333028D01*
G37*
G36*
X19237782Y-21282069D02*
G01*
X19237782Y-21515096D01*
X19004754Y-21515096D01*
X18771727Y-21515096D01*
X18771727Y-21282069D01*
X18771727Y-21049041D01*
X19004754Y-21049041D01*
X19237782Y-21049041D01*
X19237782Y-21282069D01*
G37*
G36*
X20169892Y-20349959D02*
G01*
X20169892Y-20582986D01*
X19936864Y-20582986D01*
X19703837Y-20582986D01*
X19703837Y-20349959D01*
X19703837Y-20116931D01*
X19936864Y-20116931D01*
X20169892Y-20116931D01*
X20169892Y-20349959D01*
G37*
G36*
X20169892Y-21282069D02*
G01*
X20169892Y-21515096D01*
X19936864Y-21515096D01*
X19703837Y-21515096D01*
X19703837Y-21282069D01*
X19703837Y-21049041D01*
X19936864Y-21049041D01*
X20169892Y-21049041D01*
X20169892Y-21282069D01*
G37*
G36*
X21102002Y-20816014D02*
G01*
X21102002Y-21049041D01*
X20868974Y-21049041D01*
X20635947Y-21049041D01*
X20635947Y-20816014D01*
X20635947Y-20582986D01*
X20868974Y-20582986D01*
X21102002Y-20582986D01*
X21102002Y-20816014D01*
G37*
G36*
X21546872Y-26832361D02*
G01*
X21546872Y-27065388D01*
X21324437Y-27065388D01*
X21102002Y-27065388D01*
X21102002Y-26832361D01*
X21102002Y-26599333D01*
X21324437Y-26599333D01*
X21546872Y-26599333D01*
X21546872Y-26832361D01*
G37*
G36*
X22012928Y-15244537D02*
G01*
X22012928Y-15477565D01*
X21779900Y-15477565D01*
X21546872Y-15477565D01*
X21546872Y-15244537D01*
X21546872Y-15011510D01*
X21779900Y-15011510D01*
X22012928Y-15011510D01*
X22012928Y-15244537D01*
G37*
G36*
X22012928Y-20349959D02*
G01*
X22012928Y-20582986D01*
X21779900Y-20582986D01*
X21546872Y-20582986D01*
X21546872Y-20349959D01*
X21546872Y-20116931D01*
X21779900Y-20116931D01*
X22012928Y-20116931D01*
X22012928Y-20349959D01*
G37*
G36*
X22478983Y-17108758D02*
G01*
X22478983Y-17341785D01*
X22245955Y-17341785D01*
X22012928Y-17341785D01*
X22012928Y-17108758D01*
X22012928Y-16875730D01*
X22245955Y-16875730D01*
X22478983Y-16875730D01*
X22478983Y-17108758D01*
G37*
G36*
X24809258Y-17574813D02*
G01*
X24809258Y-17807840D01*
X24576230Y-17807840D01*
X24343203Y-17807840D01*
X24343203Y-17574813D01*
X24343203Y-17341785D01*
X24576230Y-17341785D01*
X24809258Y-17341785D01*
X24809258Y-17574813D01*
G37*
G36*
X25720184Y-23591160D02*
G01*
X25720184Y-23824187D01*
X25487156Y-23824187D01*
X25254129Y-23824187D01*
X25254129Y-23591160D01*
X25254129Y-23358132D01*
X25487156Y-23358132D01*
X25720184Y-23358132D01*
X25720184Y-23591160D01*
G37*
G36*
X26186239Y-15710592D02*
G01*
X26186239Y-15943620D01*
X25953211Y-15943620D01*
X25720184Y-15943620D01*
X25720184Y-15710592D01*
X25720184Y-15477565D01*
X25953211Y-15477565D01*
X26186239Y-15477565D01*
X26186239Y-15710592D01*
G37*
G36*
X28961385Y-23125105D02*
G01*
X28961385Y-23358132D01*
X28738949Y-23358132D01*
X28516514Y-23358132D01*
X28516514Y-23125105D01*
X28516514Y-22892077D01*
X28738949Y-22892077D01*
X28961385Y-22892077D01*
X28961385Y-23125105D01*
G37*
G36*
X28961385Y-24523270D02*
G01*
X28961385Y-24756297D01*
X28738949Y-24756297D01*
X28516514Y-24756297D01*
X28516514Y-24523270D01*
X28516514Y-24290242D01*
X28738949Y-24290242D01*
X28961385Y-24290242D01*
X28961385Y-24523270D01*
G37*
G36*
X28961385Y-26599333D02*
G01*
X28961385Y-27065388D01*
X28738949Y-27065388D01*
X28516514Y-27065388D01*
X28516514Y-26599333D01*
X28516514Y-26133278D01*
X28738949Y-26133278D01*
X28961385Y-26133278D01*
X28961385Y-26599333D01*
G37*
G36*
X29893495Y-23591160D02*
G01*
X29893495Y-23824187D01*
X29660467Y-23824187D01*
X29427440Y-23824187D01*
X29427440Y-23591160D01*
X29427440Y-23358132D01*
X29660467Y-23358132D01*
X29893495Y-23358132D01*
X29893495Y-23591160D01*
G37*
G36*
X13864110Y-9570774D02*
G01*
X13891836Y-9605374D01*
X13887953Y-9648234D01*
X13879622Y-9660693D01*
X13838358Y-9688507D01*
X13793054Y-9691233D01*
X13761334Y-9668433D01*
X13759178Y-9663706D01*
X13751964Y-9606607D01*
X13775095Y-9567696D01*
X13812577Y-9556547D01*
X13864110Y-9570774D01*
G37*
G36*
X7622642Y-12729341D02*
G01*
X7708157Y-12749472D01*
X7762644Y-12790799D01*
X7791006Y-12859440D01*
X7798249Y-12948386D01*
X7788629Y-13043777D01*
X7756874Y-13105514D01*
X7698639Y-13138397D01*
X7618182Y-13147290D01*
X7522852Y-13147290D01*
X7522852Y-12932691D01*
X7522852Y-12718093D01*
X7622642Y-12729341D01*
G37*
G36*
X23411093Y-19417848D02*
G01*
X23411093Y-20116931D01*
X23178065Y-20116931D01*
X22945038Y-20116931D01*
X22945038Y-19650876D01*
X22945038Y-19184821D01*
X22712010Y-19184821D01*
X22478983Y-19184821D01*
X22478983Y-18951793D01*
X22478983Y-18718766D01*
X22945038Y-18718766D01*
X23411093Y-18718766D01*
X23411093Y-19417848D01*
G37*
G36*
X20219831Y-11075378D02*
G01*
X20273795Y-11091530D01*
X20303778Y-11134096D01*
X20306394Y-11141193D01*
X20311663Y-11205790D01*
X20286157Y-11257442D01*
X20239377Y-11287425D01*
X20180825Y-11287013D01*
X20158061Y-11277400D01*
X20104661Y-11230740D01*
X20086160Y-11176499D01*
X20099309Y-11125307D01*
X20140858Y-11087790D01*
X20207557Y-11074578D01*
X20219831Y-11075378D01*
G37*
G36*
X20270744Y-9372399D02*
G01*
X20307053Y-9415085D01*
X20318199Y-9470424D01*
X20300430Y-9525483D01*
X20271100Y-9555346D01*
X20232304Y-9580082D01*
X20204559Y-9584146D01*
X20169892Y-9573622D01*
X20113858Y-9536772D01*
X20089376Y-9485566D01*
X20094224Y-9431235D01*
X20126186Y-9385011D01*
X20183041Y-9358123D01*
X20213028Y-9355296D01*
X20270744Y-9372399D01*
G37*
G36*
X21972092Y-11080425D02*
G01*
X22012807Y-11116464D01*
X22016782Y-11124187D01*
X22028437Y-11189779D01*
X22007948Y-11246285D01*
X21963400Y-11283606D01*
X21902880Y-11291641D01*
X21885822Y-11287777D01*
X21836692Y-11254505D01*
X21805231Y-11200642D01*
X21801084Y-11174612D01*
X21818430Y-11121539D01*
X21861589Y-11086076D01*
X21917248Y-11071333D01*
X21972092Y-11080425D01*
G37*
G36*
X13525054Y-9421540D02*
G01*
X13542501Y-9438850D01*
X13575029Y-9504411D01*
X13574582Y-9569627D01*
X13548171Y-9627555D01*
X13502809Y-9671251D01*
X13445508Y-9693773D01*
X13383280Y-9688177D01*
X13327356Y-9651877D01*
X13292923Y-9591755D01*
X13286298Y-9519842D01*
X13307462Y-9453779D01*
X13327630Y-9429194D01*
X13390972Y-9396067D01*
X13462249Y-9393761D01*
X13525054Y-9421540D01*
G37*
G36*
X16540235Y-11097118D02*
G01*
X16554682Y-11109967D01*
X16586637Y-11166288D01*
X16576480Y-11218051D01*
X16552669Y-11244787D01*
X16503283Y-11282042D01*
X16465755Y-11291853D01*
X16423425Y-11278114D01*
X16419084Y-11275991D01*
X16377027Y-11234888D01*
X16358751Y-11176035D01*
X16368520Y-11117963D01*
X16378962Y-11101722D01*
X16424489Y-11075978D01*
X16484665Y-11074745D01*
X16540235Y-11097118D01*
G37*
G36*
X2256983Y-48395548D02*
G01*
X2318583Y-48446600D01*
X2350888Y-48522246D01*
X2353878Y-48556881D01*
X2335145Y-48640052D01*
X2284093Y-48701652D01*
X2208446Y-48733957D01*
X2173812Y-48736948D01*
X2092989Y-48719660D01*
X2045743Y-48684950D01*
X2001878Y-48615839D01*
X1993040Y-48540781D01*
X2015036Y-48469860D01*
X2063673Y-48413162D01*
X2134762Y-48380773D01*
X2173812Y-48376814D01*
X2256983Y-48395548D01*
G37*
G36*
X2966044Y-48395674D02*
G01*
X3020730Y-48447674D01*
X3049794Y-48525941D01*
X3052961Y-48566637D01*
X3035442Y-48645707D01*
X2989590Y-48702708D01*
X2925466Y-48733491D01*
X2853127Y-48733910D01*
X2782633Y-48699817D01*
X2766010Y-48684950D01*
X2722532Y-48616269D01*
X2713637Y-48541326D01*
X2735174Y-48470313D01*
X2782989Y-48413419D01*
X2852929Y-48380834D01*
X2891578Y-48376814D01*
X2966044Y-48395674D01*
G37*
G36*
X4396599Y-48395548D02*
G01*
X4458199Y-48446600D01*
X4490504Y-48522246D01*
X4493495Y-48556881D01*
X4474761Y-48640052D01*
X4423709Y-48701652D01*
X4348062Y-48733957D01*
X4313428Y-48736948D01*
X4232606Y-48719660D01*
X4185359Y-48684950D01*
X4141495Y-48615839D01*
X4132656Y-48540781D01*
X4154652Y-48469860D01*
X4203290Y-48413162D01*
X4274378Y-48380773D01*
X4313428Y-48376814D01*
X4396599Y-48395548D01*
G37*
G36*
X5107914Y-48391252D02*
G01*
X5161812Y-48432868D01*
X5204873Y-48505041D01*
X5212581Y-48581040D01*
X5189042Y-48651125D01*
X5138358Y-48705554D01*
X5064635Y-48734588D01*
X5033695Y-48736948D01*
X4952872Y-48719660D01*
X4905626Y-48684950D01*
X4861756Y-48615836D01*
X4852916Y-48540780D01*
X4874914Y-48469864D01*
X4923559Y-48413170D01*
X4994659Y-48380778D01*
X5033743Y-48376814D01*
X5107914Y-48391252D01*
G37*
G36*
X6536216Y-48395548D02*
G01*
X6597815Y-48446600D01*
X6630120Y-48522246D01*
X6633111Y-48556881D01*
X6614377Y-48640052D01*
X6563326Y-48701652D01*
X6487679Y-48733957D01*
X6453044Y-48736948D01*
X6372222Y-48719660D01*
X6324975Y-48684950D01*
X6281111Y-48615839D01*
X6272273Y-48540781D01*
X6294268Y-48469860D01*
X6342906Y-48413162D01*
X6413994Y-48380773D01*
X6453044Y-48376814D01*
X6536216Y-48395548D01*
G37*
G36*
X7247530Y-48391252D02*
G01*
X7301429Y-48432868D01*
X7344489Y-48505041D01*
X7352197Y-48581040D01*
X7328658Y-48651125D01*
X7277975Y-48705554D01*
X7204252Y-48734588D01*
X7173311Y-48736948D01*
X7092489Y-48719660D01*
X7045242Y-48684950D01*
X7001372Y-48615836D01*
X6992532Y-48540780D01*
X7014531Y-48469864D01*
X7063176Y-48413170D01*
X7134276Y-48380778D01*
X7173360Y-48376814D01*
X7247530Y-48391252D01*
G37*
G36*
X7697332Y-13345390D02*
G01*
X7750319Y-13371784D01*
X7781686Y-13423235D01*
X7795971Y-13505848D01*
X7798249Y-13580031D01*
X7796968Y-13662535D01*
X7790947Y-13714485D01*
X7776916Y-13747672D01*
X7751604Y-13773885D01*
X7742431Y-13781282D01*
X7667345Y-13817011D01*
X7604733Y-13825188D01*
X7522852Y-13825188D01*
X7522852Y-13581568D01*
X7522852Y-13337949D01*
X7618182Y-13337949D01*
X7697332Y-13345390D01*
G37*
G36*
X7965543Y-48395674D02*
G01*
X8020229Y-48447674D01*
X8049294Y-48525941D01*
X8052460Y-48566637D01*
X8034941Y-48645707D01*
X7989090Y-48702708D01*
X7924965Y-48733491D01*
X7852626Y-48733910D01*
X7782132Y-48699817D01*
X7765509Y-48684950D01*
X7722031Y-48616269D01*
X7713137Y-48541326D01*
X7734673Y-48470313D01*
X7782488Y-48413419D01*
X7852429Y-48380834D01*
X7891078Y-48376814D01*
X7965543Y-48395674D01*
G37*
G36*
X8670409Y-48392611D02*
G01*
X8727225Y-48435760D01*
X8764059Y-48500302D01*
X8772727Y-48556881D01*
X8755585Y-48634825D01*
X8710772Y-48693848D01*
X8648213Y-48729512D01*
X8577830Y-48737376D01*
X8509548Y-48713001D01*
X8479840Y-48687918D01*
X8442038Y-48619262D01*
X8435754Y-48537387D01*
X8461114Y-48457532D01*
X8477684Y-48432632D01*
X8535877Y-48386936D01*
X8603372Y-48374966D01*
X8670409Y-48392611D01*
G37*
G36*
X9396099Y-48395548D02*
G01*
X9457699Y-48446600D01*
X9490003Y-48522246D01*
X9492994Y-48556881D01*
X9474261Y-48640052D01*
X9423209Y-48701652D01*
X9347562Y-48733957D01*
X9312928Y-48736948D01*
X9232105Y-48719660D01*
X9184859Y-48684950D01*
X9140994Y-48615839D01*
X9132156Y-48540781D01*
X9154152Y-48469860D01*
X9202789Y-48413162D01*
X9273878Y-48380773D01*
X9312928Y-48376814D01*
X9396099Y-48395548D01*
G37*
G36*
X10105160Y-48395674D02*
G01*
X10159846Y-48447674D01*
X10188910Y-48525941D01*
X10192077Y-48566637D01*
X10174558Y-48645707D01*
X10128706Y-48702708D01*
X10064581Y-48733491D01*
X9992243Y-48733910D01*
X9921749Y-48699817D01*
X9905126Y-48684950D01*
X9861648Y-48616269D01*
X9852753Y-48541326D01*
X9874290Y-48470313D01*
X9922105Y-48413419D01*
X9992045Y-48380834D01*
X10030694Y-48376814D01*
X10105160Y-48395674D01*
G37*
G36*
X11535715Y-48395548D02*
G01*
X11597315Y-48446600D01*
X11629620Y-48522246D01*
X11632611Y-48556881D01*
X11613877Y-48640052D01*
X11562825Y-48701652D01*
X11487178Y-48733957D01*
X11452544Y-48736948D01*
X11371722Y-48719660D01*
X11324475Y-48684950D01*
X11280611Y-48615839D01*
X11271772Y-48540781D01*
X11293768Y-48469860D01*
X11342406Y-48413162D01*
X11413494Y-48380773D01*
X11452544Y-48376814D01*
X11535715Y-48395548D01*
G37*
G36*
X12247029Y-48391252D02*
G01*
X12300928Y-48432868D01*
X12343989Y-48505041D01*
X12351697Y-48581040D01*
X12328157Y-48651125D01*
X12277474Y-48705554D01*
X12203751Y-48734588D01*
X12172811Y-48736948D01*
X12091988Y-48719660D01*
X12044742Y-48684950D01*
X12000872Y-48615836D01*
X11992032Y-48540780D01*
X12014030Y-48469864D01*
X12062675Y-48413170D01*
X12133775Y-48380778D01*
X12172859Y-48376814D01*
X12247029Y-48391252D01*
G37*
G36*
X13675332Y-48395548D02*
G01*
X13736931Y-48446600D01*
X13769236Y-48522246D01*
X13772227Y-48556881D01*
X13753493Y-48640052D01*
X13702442Y-48701652D01*
X13626795Y-48733957D01*
X13592160Y-48736948D01*
X13511338Y-48719660D01*
X13464091Y-48684950D01*
X13420227Y-48615839D01*
X13411389Y-48540781D01*
X13433384Y-48469860D01*
X13482022Y-48413162D01*
X13553110Y-48380773D01*
X13592160Y-48376814D01*
X13675332Y-48395548D01*
G37*
G36*
X14386646Y-48391252D02*
G01*
X14440545Y-48432868D01*
X14483605Y-48505041D01*
X14491313Y-48581040D01*
X14467774Y-48651125D01*
X14417090Y-48705554D01*
X14343368Y-48734588D01*
X14312427Y-48736948D01*
X14231605Y-48719660D01*
X14184358Y-48684950D01*
X14140488Y-48615836D01*
X14131648Y-48540780D01*
X14153647Y-48469864D01*
X14202292Y-48413170D01*
X14273391Y-48380778D01*
X14312476Y-48376814D01*
X14386646Y-48391252D01*
G37*
G36*
X15104659Y-48395674D02*
G01*
X15159345Y-48447674D01*
X15188410Y-48525941D01*
X15191576Y-48566637D01*
X15174057Y-48645707D01*
X15128206Y-48702708D01*
X15064081Y-48733491D01*
X14991742Y-48733910D01*
X14921248Y-48699817D01*
X14904625Y-48684950D01*
X14861147Y-48616269D01*
X14852253Y-48541326D01*
X14873789Y-48470313D01*
X14921604Y-48413419D01*
X14991545Y-48380834D01*
X15030194Y-48376814D01*
X15104659Y-48395674D01*
G37*
G36*
X15809525Y-48392611D02*
G01*
X15866341Y-48435760D01*
X15903175Y-48500302D01*
X15911843Y-48556881D01*
X15894701Y-48634825D01*
X15849888Y-48693848D01*
X15787329Y-48729512D01*
X15716946Y-48737376D01*
X15648664Y-48713001D01*
X15618956Y-48687918D01*
X15581154Y-48619262D01*
X15574869Y-48537387D01*
X15600230Y-48457532D01*
X15616800Y-48432632D01*
X15674993Y-48386936D01*
X15742488Y-48374966D01*
X15809525Y-48392611D01*
G37*
G36*
X16535215Y-48395548D02*
G01*
X16596815Y-48446600D01*
X16629119Y-48522246D01*
X16632110Y-48556881D01*
X16613377Y-48640052D01*
X16562325Y-48701652D01*
X16486678Y-48733957D01*
X16452043Y-48736948D01*
X16371221Y-48719660D01*
X16323975Y-48684950D01*
X16280110Y-48615839D01*
X16271272Y-48540781D01*
X16293267Y-48469860D01*
X16341905Y-48413162D01*
X16412994Y-48380773D01*
X16452043Y-48376814D01*
X16535215Y-48395548D01*
G37*
G36*
X17244276Y-48395674D02*
G01*
X17298962Y-48447674D01*
X17328026Y-48525941D01*
X17331193Y-48566637D01*
X17313674Y-48645707D01*
X17267822Y-48702708D01*
X17203697Y-48733491D01*
X17131359Y-48733910D01*
X17060865Y-48699817D01*
X17044242Y-48684950D01*
X17000764Y-48616269D01*
X16991869Y-48541326D01*
X17013406Y-48470313D01*
X17061221Y-48413419D01*
X17131161Y-48380834D01*
X17169810Y-48376814D01*
X17244276Y-48395674D01*
G37*
G36*
X18674831Y-48395548D02*
G01*
X18736431Y-48446600D01*
X18768736Y-48522246D01*
X18771727Y-48556881D01*
X18752993Y-48640052D01*
X18701941Y-48701652D01*
X18626294Y-48733957D01*
X18591660Y-48736948D01*
X18510837Y-48719660D01*
X18463591Y-48684950D01*
X18419727Y-48615839D01*
X18410888Y-48540781D01*
X18432884Y-48469860D01*
X18481522Y-48413162D01*
X18552610Y-48380773D01*
X18591660Y-48376814D01*
X18674831Y-48395548D01*
G37*
G36*
X19386145Y-48391252D02*
G01*
X19440044Y-48432868D01*
X19483105Y-48505041D01*
X19490813Y-48581040D01*
X19467273Y-48651125D01*
X19416590Y-48705554D01*
X19342867Y-48734588D01*
X19311927Y-48736948D01*
X19231104Y-48719660D01*
X19183858Y-48684950D01*
X19139988Y-48615836D01*
X19131148Y-48540780D01*
X19153146Y-48469864D01*
X19201791Y-48413170D01*
X19272891Y-48380778D01*
X19311975Y-48376814D01*
X19386145Y-48391252D01*
G37*
G36*
X20814448Y-48395548D02*
G01*
X20876047Y-48446600D01*
X20908352Y-48522246D01*
X20911343Y-48556881D01*
X20892609Y-48640052D01*
X20841558Y-48701652D01*
X20765911Y-48733957D01*
X20731276Y-48736948D01*
X20650454Y-48719660D01*
X20603207Y-48684950D01*
X20559343Y-48615839D01*
X20550505Y-48540781D01*
X20572500Y-48469860D01*
X20621138Y-48413162D01*
X20692226Y-48380773D01*
X20731276Y-48376814D01*
X20814448Y-48395548D01*
G37*
G36*
X21525762Y-48391252D02*
G01*
X21579661Y-48432868D01*
X21622721Y-48505041D01*
X21630429Y-48581040D01*
X21606890Y-48651125D01*
X21556206Y-48705554D01*
X21482483Y-48734588D01*
X21451543Y-48736948D01*
X21370721Y-48719660D01*
X21323474Y-48684950D01*
X21279604Y-48615836D01*
X21270764Y-48540780D01*
X21292763Y-48469864D01*
X21341408Y-48413170D01*
X21412507Y-48380778D01*
X21451592Y-48376814D01*
X21525762Y-48391252D01*
G37*
G36*
X22243775Y-48395674D02*
G01*
X22298461Y-48447674D01*
X22327526Y-48525941D01*
X22330692Y-48566637D01*
X22313173Y-48645707D01*
X22267322Y-48702708D01*
X22203197Y-48733491D01*
X22130858Y-48733910D01*
X22060364Y-48699817D01*
X22043741Y-48684950D01*
X22000263Y-48616269D01*
X21991369Y-48541326D01*
X22012905Y-48470313D01*
X22060720Y-48413419D01*
X22130661Y-48380834D01*
X22169309Y-48376814D01*
X22243775Y-48395674D01*
G37*
G36*
X22948641Y-48392611D02*
G01*
X23005457Y-48435760D01*
X23042291Y-48500302D01*
X23050959Y-48556881D01*
X23033816Y-48634825D01*
X22989004Y-48693848D01*
X22926444Y-48729512D01*
X22856062Y-48737376D01*
X22787780Y-48713001D01*
X22758071Y-48687918D01*
X22720270Y-48619262D01*
X22713985Y-48537387D01*
X22739346Y-48457532D01*
X22755916Y-48432632D01*
X22814109Y-48386936D01*
X22881604Y-48374966D01*
X22948641Y-48392611D01*
G37*
G36*
X23411093Y-24057215D02*
G01*
X23411093Y-24290242D01*
X23644120Y-24290242D01*
X23877148Y-24290242D01*
X23877148Y-24756297D01*
X23877148Y-25222352D01*
X23411093Y-25222352D01*
X22945038Y-25222352D01*
X22945038Y-24989325D01*
X22945038Y-24756297D01*
X22712010Y-24756297D01*
X22478983Y-24756297D01*
X22478983Y-24290242D01*
X22478983Y-23824187D01*
X22945038Y-23824187D01*
X23411093Y-23824187D01*
X23411093Y-24057215D01*
G37*
G36*
X23671982Y-48394102D02*
G01*
X23719228Y-48428812D01*
X23762657Y-48497532D01*
X23771226Y-48556881D01*
X23753939Y-48637703D01*
X23719228Y-48684950D01*
X23650508Y-48728379D01*
X23591159Y-48736948D01*
X23510337Y-48719660D01*
X23463091Y-48684950D01*
X23419662Y-48616230D01*
X23411093Y-48556881D01*
X23428380Y-48476059D01*
X23463091Y-48428812D01*
X23531810Y-48385383D01*
X23591159Y-48376814D01*
X23671982Y-48394102D01*
G37*
G36*
X24383391Y-48395674D02*
G01*
X24438077Y-48447674D01*
X24467142Y-48525941D01*
X24470309Y-48566637D01*
X24452790Y-48645707D01*
X24406938Y-48702708D01*
X24342813Y-48733491D01*
X24270474Y-48733910D01*
X24199981Y-48699817D01*
X24183357Y-48684950D01*
X24139879Y-48616269D01*
X24130985Y-48541326D01*
X24152522Y-48470313D01*
X24200336Y-48413419D01*
X24270277Y-48380834D01*
X24308926Y-48376814D01*
X24383391Y-48395674D01*
G37*
G36*
X25811598Y-48394102D02*
G01*
X25858845Y-48428812D01*
X25902274Y-48497532D01*
X25910842Y-48556881D01*
X25893555Y-48637703D01*
X25858845Y-48684950D01*
X25790125Y-48728379D01*
X25730776Y-48736948D01*
X25649953Y-48719660D01*
X25602707Y-48684950D01*
X25559278Y-48616230D01*
X25550709Y-48556881D01*
X25567996Y-48476059D01*
X25602707Y-48428812D01*
X25671427Y-48385383D01*
X25730776Y-48376814D01*
X25811598Y-48394102D01*
G37*
G36*
X26525261Y-48391252D02*
G01*
X26579160Y-48432868D01*
X26622221Y-48505041D01*
X26629929Y-48581040D01*
X26606389Y-48651125D01*
X26555706Y-48705554D01*
X26481983Y-48734588D01*
X26451043Y-48736948D01*
X26370220Y-48719660D01*
X26322974Y-48684950D01*
X26279104Y-48615836D01*
X26270264Y-48540780D01*
X26292262Y-48469864D01*
X26340907Y-48413170D01*
X26412007Y-48380778D01*
X26451091Y-48376814D01*
X26525261Y-48391252D01*
G37*
G36*
X27951214Y-48394102D02*
G01*
X27998461Y-48428812D01*
X28041890Y-48497532D01*
X28050459Y-48556881D01*
X28033171Y-48637703D01*
X27998461Y-48684950D01*
X27929741Y-48728379D01*
X27870392Y-48736948D01*
X27789570Y-48719660D01*
X27742323Y-48684950D01*
X27698894Y-48616230D01*
X27690325Y-48556881D01*
X27707613Y-48476059D01*
X27742323Y-48428812D01*
X27811043Y-48385383D01*
X27870392Y-48376814D01*
X27951214Y-48394102D01*
G37*
G36*
X28664878Y-48391252D02*
G01*
X28718776Y-48432868D01*
X28761837Y-48505041D01*
X28769545Y-48581040D01*
X28746006Y-48651125D01*
X28695322Y-48705554D01*
X28621599Y-48734588D01*
X28590659Y-48736948D01*
X28509837Y-48719660D01*
X28462590Y-48684950D01*
X28418720Y-48615836D01*
X28409880Y-48540780D01*
X28431878Y-48469864D01*
X28480523Y-48413170D01*
X28551623Y-48380778D01*
X28590708Y-48376814D01*
X28664878Y-48391252D01*
G37*
G36*
X29382891Y-48395674D02*
G01*
X29437577Y-48447674D01*
X29466642Y-48525941D01*
X29469808Y-48566637D01*
X29452289Y-48645707D01*
X29406438Y-48702708D01*
X29342313Y-48733491D01*
X29269974Y-48733910D01*
X29199480Y-48699817D01*
X29182857Y-48684950D01*
X29139379Y-48616269D01*
X29130485Y-48541326D01*
X29152021Y-48470313D01*
X29199836Y-48413419D01*
X29269777Y-48380834D01*
X29308425Y-48376814D01*
X29382891Y-48395674D01*
G37*
G36*
X3535592Y-10885474D02*
G01*
X3529608Y-11122026D01*
X3349541Y-11201193D01*
X3269129Y-11235975D01*
X3203517Y-11263290D01*
X3162221Y-11279227D01*
X3153586Y-11281715D01*
X3147310Y-11262491D01*
X3142204Y-11209239D01*
X3138819Y-11130293D01*
X3137698Y-11041522D01*
X3137698Y-10799975D01*
X3195955Y-10779103D01*
X3245272Y-10760995D01*
X3318243Y-10733701D01*
X3397893Y-10703576D01*
X3541575Y-10648921D01*
X3535592Y-10885474D01*
G37*
G36*
X3683812Y-48395012D02*
G01*
X3740787Y-48446248D01*
X3770185Y-48525490D01*
X3773228Y-48566637D01*
X3755646Y-48643524D01*
X3709780Y-48700592D01*
X3645949Y-48733567D01*
X3574474Y-48738177D01*
X3505673Y-48710148D01*
X3480340Y-48687918D01*
X3442539Y-48619262D01*
X3436254Y-48537387D01*
X3461614Y-48457532D01*
X3478185Y-48432632D01*
X3523187Y-48391936D01*
X3582288Y-48377408D01*
X3603753Y-48376814D01*
X3683812Y-48395012D01*
G37*
G36*
X5823428Y-48395012D02*
G01*
X5880403Y-48446248D01*
X5909801Y-48525490D01*
X5912844Y-48566637D01*
X5895262Y-48643524D01*
X5849396Y-48700592D01*
X5785565Y-48733567D01*
X5714090Y-48738177D01*
X5645289Y-48710148D01*
X5619956Y-48687918D01*
X5582155Y-48619262D01*
X5575870Y-48537387D01*
X5601231Y-48457532D01*
X5617801Y-48432632D01*
X5662803Y-48391936D01*
X5721905Y-48377408D01*
X5743370Y-48376814D01*
X5823428Y-48395012D01*
G37*
G36*
X10822928Y-48395012D02*
G01*
X10879903Y-48446248D01*
X10909301Y-48525490D01*
X10912344Y-48566637D01*
X10894762Y-48643524D01*
X10848896Y-48700592D01*
X10785065Y-48733567D01*
X10713590Y-48738177D01*
X10644789Y-48710148D01*
X10619456Y-48687918D01*
X10581655Y-48619262D01*
X10575370Y-48537387D01*
X10600730Y-48457532D01*
X10617301Y-48432632D01*
X10662303Y-48391936D01*
X10721404Y-48377408D01*
X10742869Y-48376814D01*
X10822928Y-48395012D01*
G37*
G36*
X12962544Y-48395012D02*
G01*
X13019519Y-48446248D01*
X13048917Y-48525490D01*
X13051960Y-48566637D01*
X13034378Y-48643524D01*
X12988512Y-48700592D01*
X12924681Y-48733567D01*
X12853206Y-48738177D01*
X12784405Y-48710148D01*
X12759072Y-48687918D01*
X12721271Y-48619262D01*
X12714986Y-48537387D01*
X12740347Y-48457532D01*
X12756917Y-48432632D01*
X12801919Y-48391936D01*
X12861021Y-48377408D01*
X12882486Y-48376814D01*
X12962544Y-48395012D01*
G37*
G36*
X17962044Y-48395012D02*
G01*
X18019019Y-48446248D01*
X18048416Y-48525490D01*
X18051460Y-48566637D01*
X18033878Y-48643524D01*
X17988012Y-48700592D01*
X17924181Y-48733567D01*
X17852705Y-48738177D01*
X17783905Y-48710148D01*
X17758572Y-48687918D01*
X17720771Y-48619262D01*
X17714486Y-48537387D01*
X17739846Y-48457532D01*
X17756417Y-48432632D01*
X17801419Y-48391936D01*
X17860520Y-48377408D01*
X17881985Y-48376814D01*
X17962044Y-48395012D01*
G37*
G36*
X20101660Y-48395012D02*
G01*
X20158635Y-48446248D01*
X20188033Y-48525490D01*
X20191076Y-48566637D01*
X20173494Y-48643524D01*
X20127628Y-48700592D01*
X20063797Y-48733567D01*
X19992322Y-48738177D01*
X19923521Y-48710148D01*
X19898188Y-48687918D01*
X19860387Y-48619262D01*
X19854102Y-48537387D01*
X19879463Y-48457532D01*
X19896033Y-48432632D01*
X19941035Y-48391936D01*
X20000137Y-48377408D01*
X20021601Y-48376814D01*
X20101660Y-48395012D01*
G37*
G36*
X25101160Y-48395012D02*
G01*
X25158135Y-48446248D01*
X25187532Y-48525490D01*
X25190576Y-48566637D01*
X25172994Y-48643524D01*
X25127128Y-48700592D01*
X25063297Y-48733567D01*
X24991821Y-48738177D01*
X24923021Y-48710148D01*
X24897688Y-48687918D01*
X24859887Y-48619262D01*
X24853602Y-48537387D01*
X24878962Y-48457532D01*
X24895533Y-48432632D01*
X24940535Y-48391936D01*
X24999636Y-48377408D01*
X25021101Y-48376814D01*
X25101160Y-48395012D01*
G37*
G36*
X27240776Y-48395012D02*
G01*
X27297751Y-48446248D01*
X27327149Y-48525490D01*
X27330192Y-48566637D01*
X27312610Y-48643524D01*
X27266744Y-48700592D01*
X27202913Y-48733567D01*
X27131438Y-48738177D01*
X27062637Y-48710148D01*
X27037304Y-48687918D01*
X26999503Y-48619262D01*
X26993218Y-48537387D01*
X27018578Y-48457532D01*
X27035149Y-48432632D01*
X27080151Y-48391936D01*
X27139253Y-48377408D01*
X27160717Y-48376814D01*
X27240776Y-48395012D01*
G37*
G36*
X1547359Y-48407807D02*
G01*
X1599060Y-48444291D01*
X1625547Y-48493794D01*
X1633565Y-48569647D01*
X1633611Y-48578260D01*
X1614426Y-48649747D01*
X1562963Y-48704292D01*
X1488358Y-48733886D01*
X1452571Y-48736948D01*
X1392225Y-48725305D01*
X1339556Y-48684406D01*
X1326445Y-48669539D01*
X1285121Y-48593868D01*
X1285522Y-48517811D01*
X1327261Y-48445625D01*
X1348782Y-48424479D01*
X1413144Y-48384742D01*
X1480463Y-48382085D01*
X1547359Y-48407807D01*
G37*
G36*
X19703837Y-25910843D02*
G01*
X19703837Y-27065388D01*
X18538699Y-27065388D01*
X17373561Y-27065388D01*
X17373561Y-26599333D01*
X17839616Y-26599333D01*
X18538699Y-26599333D01*
X19237782Y-26599333D01*
X19237782Y-25910843D01*
X19237782Y-25222352D01*
X18538699Y-25222352D01*
X17839616Y-25222352D01*
X17839616Y-25910843D01*
X17839616Y-26599333D01*
X17373561Y-26599333D01*
X17373561Y-25910843D01*
X17373561Y-24756297D01*
X18538699Y-24756297D01*
X19703837Y-24756297D01*
X19703837Y-25910843D01*
G37*
G36*
X28050459Y-24523270D02*
G01*
X28050459Y-25222352D01*
X27351376Y-25222352D01*
X26652294Y-25222352D01*
X26652294Y-24756297D01*
X27118349Y-24756297D01*
X27351376Y-24756297D01*
X27584404Y-24756297D01*
X27584404Y-24523270D01*
X27584404Y-24290242D01*
X27351376Y-24290242D01*
X27118349Y-24290242D01*
X27118349Y-24523270D01*
X27118349Y-24756297D01*
X26652294Y-24756297D01*
X26652294Y-24523270D01*
X26652294Y-23824187D01*
X27351376Y-23824187D01*
X28050459Y-23824187D01*
X28050459Y-24523270D01*
G37*
G36*
X29893495Y-15710592D02*
G01*
X29893495Y-16875730D01*
X28738949Y-16875730D01*
X27584404Y-16875730D01*
X27584404Y-16409675D01*
X28050459Y-16409675D01*
X28738949Y-16409675D01*
X29427440Y-16409675D01*
X29427440Y-15710592D01*
X29427440Y-15011510D01*
X28738949Y-15011510D01*
X28050459Y-15011510D01*
X28050459Y-15710592D01*
X28050459Y-16409675D01*
X27584404Y-16409675D01*
X27584404Y-15710592D01*
X27584404Y-14545455D01*
X28738949Y-14545455D01*
X29893495Y-14545455D01*
X29893495Y-15710592D01*
G37*
G36*
X30103823Y-48407807D02*
G01*
X30155524Y-48444291D01*
X30182011Y-48493794D01*
X30190029Y-48569647D01*
X30190075Y-48578260D01*
X30170890Y-48649747D01*
X30119426Y-48704292D01*
X30044822Y-48733886D01*
X30009035Y-48736948D01*
X29948689Y-48725305D01*
X29896020Y-48684406D01*
X29882909Y-48669539D01*
X29841585Y-48593868D01*
X29841986Y-48517811D01*
X29883725Y-48445625D01*
X29905245Y-48424479D01*
X29969608Y-48384742D01*
X30036927Y-48382085D01*
X30103823Y-48407807D01*
G37*
G36*
X19703837Y-15710592D02*
G01*
X19703837Y-16875730D01*
X18538699Y-16875730D01*
X17373561Y-16875730D01*
X17373561Y-16409675D01*
X17839038Y-16409675D01*
X18538410Y-16409675D01*
X19237782Y-16409675D01*
X19237782Y-15710303D01*
X19237782Y-15010931D01*
X18543995Y-15016516D01*
X17850209Y-15022102D01*
X17844623Y-15715889D01*
X17839038Y-16409675D01*
X17373561Y-16409675D01*
X17373561Y-15710592D01*
X17373561Y-14545455D01*
X18538699Y-14545455D01*
X19703837Y-14545455D01*
X19703837Y-15710592D01*
G37*
G36*
X2213029Y-10657094D02*
G01*
X2220395Y-10684209D01*
X2223633Y-10740047D01*
X2223270Y-10830225D01*
X2222194Y-10878788D01*
X2216180Y-11115120D01*
X2026550Y-11199095D01*
X1945337Y-11234791D01*
X1880132Y-11262947D01*
X1839578Y-11279857D01*
X1830595Y-11283070D01*
X1828097Y-11263284D01*
X1826065Y-11209520D01*
X1824717Y-11130168D01*
X1824270Y-11040990D01*
X1824270Y-10798910D01*
X1999041Y-10731315D01*
X2080805Y-10699680D01*
X2149006Y-10673270D01*
X2192809Y-10656281D01*
X2201010Y-10653089D01*
X2213029Y-10657094D01*
G37*
G36*
X2874023Y-9692740D02*
G01*
X2878446Y-9745843D01*
X2879917Y-9823474D01*
X2878931Y-9887611D01*
X2872894Y-10102161D01*
X2714012Y-10163201D01*
X2634024Y-10193634D01*
X2565897Y-10219019D01*
X2522156Y-10234702D01*
X2517297Y-10236308D01*
X2500386Y-10238559D01*
X2489802Y-10227569D01*
X2484458Y-10196285D01*
X2483263Y-10137654D01*
X2485131Y-10044620D01*
X2485521Y-10030378D01*
X2491576Y-9812381D01*
X2670443Y-9742721D01*
X2751526Y-9711866D01*
X2817736Y-9688015D01*
X2859133Y-9674688D01*
X2867139Y-9673061D01*
X2874023Y-9692740D01*
G37*
G36*
X21546898Y-22897373D02*
G01*
X21547307Y-23051999D01*
X21547598Y-23208436D01*
X21547760Y-23356109D01*
X21547782Y-23484445D01*
X21547654Y-23582870D01*
X21547614Y-23596456D01*
X21546872Y-23824187D01*
X21091410Y-23824187D01*
X20635947Y-23824187D01*
X20634744Y-23596456D01*
X20634453Y-23470579D01*
X20634689Y-23325989D01*
X20635397Y-23186338D01*
X20635864Y-23130401D01*
X20638187Y-22892077D01*
X20869691Y-22892077D01*
X21102002Y-22892077D01*
X21102002Y-22659049D01*
X21102002Y-22426022D01*
X21324437Y-22426022D01*
X21545440Y-22426022D01*
X21546898Y-22897373D01*
G37*
G36*
X1408552Y-13011798D02*
G01*
X1422295Y-13054586D01*
X1439487Y-13120772D01*
X1458109Y-13201205D01*
X1476142Y-13286734D01*
X1491565Y-13368208D01*
X1502359Y-13436474D01*
X1506504Y-13482382D01*
X1506506Y-13482917D01*
X1486525Y-13498655D01*
X1430422Y-13506672D01*
X1399156Y-13507423D01*
X1335979Y-13505448D01*
X1306108Y-13497223D01*
X1300574Y-13479305D01*
X1302655Y-13470351D01*
X1310940Y-13434049D01*
X1324187Y-13367342D01*
X1340185Y-13281581D01*
X1349069Y-13232027D01*
X1366044Y-13141871D01*
X1382270Y-13065893D01*
X1395336Y-13014941D01*
X1400278Y-13001561D01*
X1408552Y-13011798D01*
G37*
G36*
X6789369Y-13011798D02*
G01*
X6803112Y-13054586D01*
X6820305Y-13120772D01*
X6838927Y-13201205D01*
X6856959Y-13286734D01*
X6872382Y-13368208D01*
X6883176Y-13436474D01*
X6887322Y-13482382D01*
X6887323Y-13482917D01*
X6867342Y-13498655D01*
X6811239Y-13506672D01*
X6779974Y-13507423D01*
X6716796Y-13505448D01*
X6686926Y-13497223D01*
X6681392Y-13479305D01*
X6683473Y-13470351D01*
X6691757Y-13434049D01*
X6705004Y-13367342D01*
X6721002Y-13281581D01*
X6729887Y-13232027D01*
X6746862Y-13141871D01*
X6763088Y-13065893D01*
X6776154Y-13014941D01*
X6781095Y-13001561D01*
X6789369Y-13011798D01*
G37*
G36*
X7332194Y-39161123D02*
G01*
X7332194Y-39330085D01*
X6977356Y-39335893D01*
X6622519Y-39341702D01*
X6616723Y-39707131D01*
X6610926Y-40072561D01*
X6929191Y-40072561D01*
X7247456Y-40072561D01*
X7247456Y-40241469D01*
X7247456Y-40410377D01*
X6934988Y-40416240D01*
X6622519Y-40422102D01*
X6622519Y-40782235D01*
X6622519Y-41142369D01*
X6977356Y-41148177D01*
X7332194Y-41153986D01*
X7332194Y-41333540D01*
X7332194Y-41513095D01*
X6791993Y-41513095D01*
X6251793Y-41513095D01*
X6251793Y-40252627D01*
X6251793Y-38992160D01*
X6791993Y-38992160D01*
X7332194Y-38992160D01*
X7332194Y-39161123D01*
G37*
G36*
X9433354Y-10161917D02*
G01*
X9520032Y-10167727D01*
X9576043Y-10179170D01*
X9607194Y-10197687D01*
X9619291Y-10224717D01*
X9620100Y-10237169D01*
X9606322Y-10272002D01*
X9586811Y-10296485D01*
X9548392Y-10313142D01*
X9478882Y-10324675D01*
X9389246Y-10331077D01*
X9290451Y-10332342D01*
X9193464Y-10328465D01*
X9109249Y-10319439D01*
X9048775Y-10305258D01*
X9031653Y-10296797D01*
X8992182Y-10260768D01*
X8990891Y-10227589D01*
X9017860Y-10193590D01*
X9040990Y-10178897D01*
X9080415Y-10169061D01*
X9143381Y-10163258D01*
X9237133Y-10160662D01*
X9310204Y-10160301D01*
X9433354Y-10161917D01*
G37*
G36*
X13713547Y-10627838D02*
G01*
X13798711Y-10633448D01*
X13853731Y-10644933D01*
X13884686Y-10664038D01*
X13897655Y-10692510D01*
X13899333Y-10714584D01*
X13882372Y-10753906D01*
X13858357Y-10773900D01*
X13817617Y-10784347D01*
X13747807Y-10791445D01*
X13659464Y-10795261D01*
X13563132Y-10795863D01*
X13469348Y-10793317D01*
X13388655Y-10787691D01*
X13331592Y-10779052D01*
X13310409Y-10770409D01*
X13287648Y-10728804D01*
X13284988Y-10711093D01*
X13290527Y-10677525D01*
X13311156Y-10653965D01*
X13352891Y-10638753D01*
X13421749Y-10630230D01*
X13523744Y-10626736D01*
X13592160Y-10626356D01*
X13713547Y-10627838D01*
G37*
G36*
X20631367Y-21742828D02*
G01*
X20625355Y-21970559D01*
X20397623Y-21976572D01*
X20169892Y-21982585D01*
X20169892Y-22203587D01*
X20169892Y-22424589D01*
X20397623Y-22430601D01*
X20625355Y-22436614D01*
X20631367Y-22664346D01*
X20637380Y-22892077D01*
X20404040Y-22892077D01*
X20169892Y-22892077D01*
X20169892Y-22659049D01*
X20169892Y-22426022D01*
X19936864Y-22426022D01*
X19703837Y-22426022D01*
X19703837Y-22203587D01*
X19703837Y-21981151D01*
X19936864Y-21981151D01*
X20169892Y-21981151D01*
X20169892Y-21748124D01*
X20169892Y-21515096D01*
X20403636Y-21515096D01*
X20637380Y-21515096D01*
X20631367Y-21742828D01*
G37*
G36*
X29432019Y-24973436D02*
G01*
X29433962Y-25091194D01*
X29434261Y-25229908D01*
X29432941Y-25368202D01*
X29431453Y-25439492D01*
X29424875Y-25688407D01*
X28970694Y-25688407D01*
X28516514Y-25688407D01*
X28516514Y-25910843D01*
X28516514Y-26133278D01*
X28283486Y-26133278D01*
X28050459Y-26133278D01*
X28050459Y-25910843D01*
X28050459Y-25688407D01*
X28283486Y-25688407D01*
X28516514Y-25688407D01*
X28516514Y-25455380D01*
X28516514Y-25222352D01*
X28738949Y-25222352D01*
X28961385Y-25222352D01*
X28961385Y-24989325D01*
X28961385Y-24756297D01*
X29193695Y-24756297D01*
X29426006Y-24756297D01*
X29432019Y-24973436D01*
G37*
G36*
X2565722Y-9376481D02*
G01*
X2647479Y-9406588D01*
X2711701Y-9431433D01*
X2749733Y-9447600D01*
X2756380Y-9451684D01*
X2738326Y-9460989D01*
X2691124Y-9481218D01*
X2625218Y-9508201D01*
X2551051Y-9537771D01*
X2479063Y-9565760D01*
X2419700Y-9587998D01*
X2385655Y-9599663D01*
X2357691Y-9595024D01*
X2300798Y-9577254D01*
X2225095Y-9549663D01*
X2187415Y-9534854D01*
X2108045Y-9502402D01*
X2044913Y-9475535D01*
X2007425Y-9458305D01*
X2001366Y-9454716D01*
X2015918Y-9444251D01*
X2062371Y-9423391D01*
X2132593Y-9395615D01*
X2183718Y-9376728D01*
X2375063Y-9307732D01*
X2565722Y-9376481D01*
G37*
G36*
X1895406Y-10357841D02*
G01*
X1975332Y-10388575D01*
X2037555Y-10415010D01*
X2073219Y-10433257D01*
X2078329Y-10438181D01*
X2060171Y-10450414D01*
X2012676Y-10472413D01*
X1946519Y-10500012D01*
X1872375Y-10529047D01*
X1800921Y-10555351D01*
X1742830Y-10574762D01*
X1708780Y-10583113D01*
X1706690Y-10583170D01*
X1679099Y-10575515D01*
X1622270Y-10555724D01*
X1546307Y-10527387D01*
X1508045Y-10512597D01*
X1432472Y-10480830D01*
X1377789Y-10453460D01*
X1351486Y-10434479D01*
X1351581Y-10429205D01*
X1380606Y-10415984D01*
X1438678Y-10392661D01*
X1514995Y-10363526D01*
X1543141Y-10353073D01*
X1712636Y-10290578D01*
X1895406Y-10357841D01*
G37*
G36*
X3206985Y-10353073D02*
G01*
X3287041Y-10383205D01*
X3352518Y-10408983D01*
X3392616Y-10426115D01*
X3398544Y-10429205D01*
X3389764Y-10441413D01*
X3350681Y-10463467D01*
X3291025Y-10491338D01*
X3220526Y-10521000D01*
X3148913Y-10548422D01*
X3085916Y-10569576D01*
X3041265Y-10580435D01*
X3031777Y-10581058D01*
X2998136Y-10573070D01*
X2936829Y-10552989D01*
X2859435Y-10524683D01*
X2835822Y-10515561D01*
X2760733Y-10484728D01*
X2703727Y-10458520D01*
X2674032Y-10441287D01*
X2671797Y-10438232D01*
X2690375Y-10425680D01*
X2740061Y-10402948D01*
X2812000Y-10373926D01*
X2854720Y-10357841D01*
X3037489Y-10290578D01*
X3206985Y-10353073D01*
G37*
G36*
X13781683Y-10332453D02*
G01*
X13833698Y-10335361D01*
X13864154Y-10342044D01*
X13879981Y-10353370D01*
X13888112Y-10370211D01*
X13888877Y-10372573D01*
X13895991Y-10412949D01*
X13884337Y-10441793D01*
X13848925Y-10460891D01*
X13784761Y-10472027D01*
X13686855Y-10476988D01*
X13594862Y-10477741D01*
X13492789Y-10476195D01*
X13404961Y-10472228D01*
X13340762Y-10466439D01*
X13309615Y-10459457D01*
X13290257Y-10426661D01*
X13288430Y-10390932D01*
X13292564Y-10370726D01*
X13302787Y-10356620D01*
X13325876Y-10347324D01*
X13368609Y-10341551D01*
X13437765Y-10338010D01*
X13540122Y-10335413D01*
X13585250Y-10334484D01*
X13701177Y-10332451D01*
X13781683Y-10332453D01*
G37*
G36*
X26297749Y-36917557D02*
G01*
X26425437Y-36984261D01*
X26503078Y-37048386D01*
X26594073Y-37164461D01*
X26650808Y-37297066D01*
X26673505Y-37438485D01*
X26662387Y-37581008D01*
X26617677Y-37716920D01*
X26539597Y-37838509D01*
X26478479Y-37899968D01*
X26358284Y-37977257D01*
X26219787Y-38024256D01*
X26074809Y-38038690D01*
X25935170Y-38018285D01*
X25908408Y-38009640D01*
X25771291Y-37939353D01*
X25660390Y-37838747D01*
X25579701Y-37713574D01*
X25533218Y-37569591D01*
X25523189Y-37454846D01*
X25542945Y-37305575D01*
X25596088Y-37175048D01*
X25676934Y-37065623D01*
X25779799Y-36979659D01*
X25898997Y-36919512D01*
X26028844Y-36887540D01*
X26163656Y-36886103D01*
X26297749Y-36917557D01*
G37*
G36*
X22441910Y-29483710D02*
G01*
X22562465Y-29487084D01*
X22649489Y-29491398D01*
X22711815Y-29498097D01*
X22758277Y-29508625D01*
X22797709Y-29524424D01*
X22838946Y-29546938D01*
X22842840Y-29549221D01*
X22911858Y-29598552D01*
X22963517Y-29660386D01*
X23001723Y-29729288D01*
X23061551Y-29851126D01*
X23061551Y-30327773D01*
X23061445Y-30481727D01*
X23060709Y-30599731D01*
X23058720Y-30688206D01*
X23054852Y-30753572D01*
X23048482Y-30802249D01*
X23038986Y-30840656D01*
X23025739Y-30875213D01*
X23008116Y-30912340D01*
X23003865Y-30920934D01*
X22952788Y-31008090D01*
X22893153Y-31073767D01*
X22818633Y-31120626D01*
X22722900Y-31151332D01*
X22599626Y-31168545D01*
X22442483Y-31174930D01*
X22399681Y-31175146D01*
X22140033Y-31175146D01*
X22140033Y-30325787D01*
X22140033Y-29476428D01*
X22441910Y-29483710D01*
G37*
G36*
X25720184Y-18030276D02*
G01*
X25720184Y-18252711D01*
X25953211Y-18252711D01*
X26186239Y-18252711D01*
X26186239Y-18030276D01*
X26186239Y-17807840D01*
X26419266Y-17807840D01*
X26652294Y-17807840D01*
X26652294Y-18030276D01*
X26652294Y-18252711D01*
X26885321Y-18252711D01*
X27118349Y-18252711D01*
X27118349Y-18485449D01*
X27118349Y-18718187D01*
X26424562Y-18723773D01*
X25730776Y-18729358D01*
X25724763Y-18957090D01*
X25718750Y-19184821D01*
X25030976Y-19184821D01*
X24343203Y-19184821D01*
X24343203Y-18951793D01*
X24343203Y-18718766D01*
X25031693Y-18718766D01*
X25720184Y-18718766D01*
X25720184Y-18496331D01*
X25720184Y-18273895D01*
X25264721Y-18273895D01*
X24809258Y-18273895D01*
X24809258Y-18040868D01*
X24809258Y-17807840D01*
X25264721Y-17807840D01*
X25720184Y-17807840D01*
X25720184Y-18030276D01*
G37*
G36*
X1434695Y-38996632D02*
G01*
X1617096Y-39002753D01*
X1878368Y-39730649D01*
X1938359Y-39897222D01*
X1994135Y-40051026D01*
X2044029Y-40187539D01*
X2086372Y-40302244D01*
X2119496Y-40390622D01*
X2141734Y-40448154D01*
X2151416Y-40470320D01*
X2151430Y-40470335D01*
X2154162Y-40452749D01*
X2156669Y-40397478D01*
X2158878Y-40309202D01*
X2160712Y-40192604D01*
X2162097Y-40052367D01*
X2162957Y-39893172D01*
X2163219Y-39737142D01*
X2163219Y-38992160D01*
X2343286Y-38992160D01*
X2523353Y-38992160D01*
X2523353Y-40252627D01*
X2523353Y-41513095D01*
X2347694Y-41513095D01*
X2172036Y-41513095D01*
X1908120Y-40788637D01*
X1644204Y-40064180D01*
X1638629Y-40788637D01*
X1633055Y-41513095D01*
X1442674Y-41513095D01*
X1252294Y-41513095D01*
X1252294Y-40251803D01*
X1252294Y-38990511D01*
X1434695Y-38996632D01*
G37*
G36*
X20630651Y-18723649D02*
G01*
X21091410Y-18729358D01*
X21097422Y-18957090D01*
X21103435Y-19184821D01*
X21325154Y-19184821D01*
X21546872Y-19184821D01*
X21546872Y-19417848D01*
X21546872Y-19650876D01*
X21324437Y-19650876D01*
X21102002Y-19650876D01*
X21102002Y-19883904D01*
X21102002Y-20116931D01*
X20869691Y-20116931D01*
X20637380Y-20116931D01*
X20631367Y-19889200D01*
X20625355Y-19661468D01*
X20164596Y-19655759D01*
X19770501Y-19650876D01*
X20635947Y-19650876D01*
X20868974Y-19650876D01*
X21102002Y-19650876D01*
X21102002Y-19417848D01*
X21102002Y-19184821D01*
X20868974Y-19184821D01*
X20635947Y-19184821D01*
X20635947Y-19417848D01*
X20635947Y-19650876D01*
X19770501Y-19650876D01*
X19703837Y-19650050D01*
X19703837Y-19417848D01*
X19703837Y-19417435D01*
X19703837Y-19184821D01*
X19936864Y-19184821D01*
X20169892Y-19184821D01*
X20169892Y-18951380D01*
X20169892Y-18717940D01*
X20630651Y-18723649D01*
G37*
G36*
X5912844Y-40251803D02*
G01*
X5912844Y-41513095D01*
X5732777Y-41513095D01*
X5552711Y-41513095D01*
X5551038Y-40755755D01*
X5549366Y-39998416D01*
X5368848Y-40534394D01*
X5188331Y-41070372D01*
X5090489Y-41064002D01*
X4992648Y-41057632D01*
X4822512Y-40538616D01*
X4652377Y-40019600D01*
X4646810Y-40766347D01*
X4641243Y-41513095D01*
X4461447Y-41513095D01*
X4281651Y-41513095D01*
X4281651Y-40252627D01*
X4281651Y-38992160D01*
X4458814Y-38992160D01*
X4635977Y-38992160D01*
X4853584Y-39622394D01*
X4907569Y-39778301D01*
X4957595Y-39921925D01*
X5001874Y-40048200D01*
X5038617Y-40152060D01*
X5066038Y-40228439D01*
X5082349Y-40272269D01*
X5085725Y-40280292D01*
X5095816Y-40267886D01*
X5117669Y-40219607D01*
X5149639Y-40139777D01*
X5190079Y-40032712D01*
X5237343Y-39902734D01*
X5289784Y-39754161D01*
X5323917Y-39655355D01*
X5547577Y-39002753D01*
X5730210Y-38996632D01*
X5912844Y-38990511D01*
X5912844Y-40251803D01*
G37*
G36*
X8603614Y-12736074D02*
G01*
X8659779Y-12765389D01*
X8692962Y-12795624D01*
X8697971Y-12823796D01*
X8701981Y-12886772D01*
X8704995Y-12976999D01*
X8707017Y-13086925D01*
X8708049Y-13208996D01*
X8708094Y-13335660D01*
X8707157Y-13459363D01*
X8705241Y-13572554D01*
X8702348Y-13667680D01*
X8698482Y-13737186D01*
X8693647Y-13773522D01*
X8692531Y-13776198D01*
X8653386Y-13806856D01*
X8592206Y-13827200D01*
X8529147Y-13830787D01*
X8523998Y-13830056D01*
X8489547Y-13821364D01*
X8462981Y-13804630D01*
X8443288Y-13774863D01*
X8429460Y-13727072D01*
X8420487Y-13656263D01*
X8415360Y-13557447D01*
X8413067Y-13425632D01*
X8412594Y-13279311D01*
X8412698Y-13130070D01*
X8413415Y-13017289D01*
X8415356Y-12935061D01*
X8419131Y-12877477D01*
X8425349Y-12838630D01*
X8434620Y-12812612D01*
X8447555Y-12793515D01*
X8464592Y-12775601D01*
X8509371Y-12740082D01*
X8548257Y-12723725D01*
X8550722Y-12723603D01*
X8603614Y-12736074D01*
G37*
G36*
X25371605Y-9746243D02*
G01*
X25423603Y-9798241D01*
X25423603Y-10319183D01*
X25423603Y-10840125D01*
X25371605Y-10892122D01*
X25319607Y-10944120D01*
X24798666Y-10944120D01*
X24277724Y-10944120D01*
X24225726Y-10892122D01*
X24173728Y-10840125D01*
X24173728Y-10552158D01*
X24325478Y-10552158D01*
X24326323Y-10652395D01*
X24328105Y-10725607D01*
X24330756Y-10765081D01*
X24331661Y-10769217D01*
X24344035Y-10778514D01*
X24375985Y-10785277D01*
X24431992Y-10789713D01*
X24516536Y-10792028D01*
X24634100Y-10792429D01*
X24789163Y-10791122D01*
X24803456Y-10790949D01*
X25264721Y-10785238D01*
X25264721Y-10319183D01*
X25264721Y-9853128D01*
X24798666Y-9853128D01*
X24332611Y-9853128D01*
X24326870Y-10297451D01*
X24325637Y-10431606D01*
X24325478Y-10552158D01*
X24173728Y-10552158D01*
X24173728Y-10319183D01*
X24173728Y-9798241D01*
X24225726Y-9746243D01*
X24277724Y-9694245D01*
X24798666Y-9694245D01*
X25319607Y-9694245D01*
X25371605Y-9746243D01*
G37*
G36*
X10440457Y-9953269D02*
G01*
X10462917Y-10012913D01*
X10467473Y-10067565D01*
X10467473Y-10160301D01*
X10558566Y-10160301D01*
X10640714Y-10170408D01*
X10687334Y-10201526D01*
X10700501Y-10248529D01*
X10681113Y-10290818D01*
X10627474Y-10319061D01*
X10546365Y-10329761D01*
X10543011Y-10329775D01*
X10496469Y-10331767D01*
X10474519Y-10345461D01*
X10467915Y-10382434D01*
X10467473Y-10424359D01*
X10456919Y-10499723D01*
X10427501Y-10542626D01*
X10382586Y-10549622D01*
X10355708Y-10538769D01*
X10329789Y-10507141D01*
X10319589Y-10445479D01*
X10319183Y-10424052D01*
X10317576Y-10365898D01*
X10306561Y-10338517D01*
X10276847Y-10330315D01*
X10243645Y-10329775D01*
X10161672Y-10319774D01*
X10106923Y-10292102D01*
X10086182Y-10250260D01*
X10086155Y-10248529D01*
X10102572Y-10197275D01*
X10152973Y-10168273D01*
X10226929Y-10160301D01*
X10316861Y-10160301D01*
X10323318Y-10061845D01*
X10339695Y-9981953D01*
X10370345Y-9937451D01*
X10406766Y-9928002D01*
X10440457Y-9953269D01*
G37*
G36*
X28615990Y-37170427D02*
G01*
X28757490Y-37170989D01*
X28866340Y-37172309D01*
X28947400Y-37174702D01*
X29005529Y-37178482D01*
X29045588Y-37183961D01*
X29072435Y-37191454D01*
X29090931Y-37201276D01*
X29105680Y-37213503D01*
X29145816Y-37275758D01*
X29148269Y-37344313D01*
X29113581Y-37407187D01*
X29096226Y-37422983D01*
X29078317Y-37435750D01*
X29057497Y-37445754D01*
X29028756Y-37453315D01*
X28987084Y-37458756D01*
X28927472Y-37462397D01*
X28844909Y-37464560D01*
X28734385Y-37465567D01*
X28590890Y-37465738D01*
X28434216Y-37465456D01*
X28248684Y-37464240D01*
X28089035Y-37461613D01*
X27958819Y-37457700D01*
X27861583Y-37452629D01*
X27800875Y-37446527D01*
X27782775Y-37442112D01*
X27730107Y-37396832D01*
X27705961Y-37334542D01*
X27710878Y-37268607D01*
X27745402Y-37212391D01*
X27772656Y-37192781D01*
X27808197Y-37185556D01*
X27884141Y-37179650D01*
X27998541Y-37175127D01*
X28149450Y-37172055D01*
X28334922Y-37170498D01*
X28436982Y-37170309D01*
X28615990Y-37170427D01*
G37*
G36*
X28620664Y-38335569D02*
G01*
X28762793Y-38336138D01*
X28872174Y-38337459D01*
X28953617Y-38339838D01*
X29011931Y-38343577D01*
X29051927Y-38348984D01*
X29078415Y-38356361D01*
X29096205Y-38366014D01*
X29109675Y-38377815D01*
X29146922Y-38441278D01*
X29147372Y-38511055D01*
X29111865Y-38574003D01*
X29096226Y-38588121D01*
X29078317Y-38600888D01*
X29057497Y-38610892D01*
X29028756Y-38618453D01*
X28987084Y-38623894D01*
X28927472Y-38627535D01*
X28844909Y-38629698D01*
X28734385Y-38630704D01*
X28590890Y-38630876D01*
X28434216Y-38630593D01*
X28248684Y-38629378D01*
X28089035Y-38626750D01*
X27958819Y-38622837D01*
X27861583Y-38617766D01*
X27800875Y-38611664D01*
X27782775Y-38607250D01*
X27730107Y-38561970D01*
X27705961Y-38499680D01*
X27710878Y-38433744D01*
X27745402Y-38377529D01*
X27772656Y-38357919D01*
X27808173Y-38350708D01*
X27884127Y-38344811D01*
X27998605Y-38340292D01*
X28149694Y-38337216D01*
X28335482Y-38335646D01*
X28440976Y-38335446D01*
X28620664Y-38335569D01*
G37*
G36*
X26275296Y-38346719D02*
G01*
X26413244Y-38349823D01*
X26521857Y-38356948D01*
X26607647Y-38369688D01*
X26677129Y-38389640D01*
X26736815Y-38418399D01*
X26793218Y-38457562D01*
X26852851Y-38508723D01*
X26884369Y-38537857D01*
X26997504Y-38670571D01*
X27073347Y-38820814D01*
X27109608Y-38981568D01*
X27114952Y-39056271D01*
X27110464Y-39103468D01*
X27093500Y-39137406D01*
X27077180Y-39156339D01*
X27031961Y-39204004D01*
X26100676Y-39204004D01*
X25877838Y-39203961D01*
X25693500Y-39203714D01*
X25543791Y-39203087D01*
X25424844Y-39201900D01*
X25332788Y-39199978D01*
X25263755Y-39197143D01*
X25213874Y-39193217D01*
X25179278Y-39188022D01*
X25156096Y-39181383D01*
X25140460Y-39173121D01*
X25128499Y-39163058D01*
X25124648Y-39159261D01*
X25098537Y-39125494D01*
X25087116Y-39083432D01*
X25087158Y-39018336D01*
X25088703Y-38995082D01*
X25120933Y-38836585D01*
X25190771Y-38688639D01*
X25293652Y-38557714D01*
X25425012Y-38450283D01*
X25504873Y-38404959D01*
X25624854Y-38346039D01*
X26101501Y-38346039D01*
X26275296Y-38346719D01*
G37*
G36*
X28477255Y-37746223D02*
G01*
X28651165Y-37748382D01*
X28787706Y-37750696D01*
X28891879Y-37753536D01*
X28968683Y-37757275D01*
X29023117Y-37762287D01*
X29060181Y-37768944D01*
X29084875Y-37777620D01*
X29102197Y-37788686D01*
X29107488Y-37793234D01*
X29144281Y-37852174D01*
X29148129Y-37921893D01*
X29118861Y-37986316D01*
X29109675Y-37996497D01*
X29095905Y-38008503D01*
X29078149Y-38018000D01*
X29051667Y-38025281D01*
X29011720Y-38030641D01*
X28953567Y-38034372D01*
X28872469Y-38036766D01*
X28763686Y-38038118D01*
X28622478Y-38038720D01*
X28444106Y-38038865D01*
X28424468Y-38038866D01*
X28241209Y-38038690D01*
X28095687Y-38037994D01*
X27983271Y-38036522D01*
X27899330Y-38034022D01*
X27839233Y-38030239D01*
X27798348Y-38024919D01*
X27772046Y-38017809D01*
X27755694Y-38008653D01*
X27748481Y-38001793D01*
X27713697Y-37945505D01*
X27710117Y-37880568D01*
X27717915Y-37843700D01*
X27729071Y-37815230D01*
X27748719Y-37792440D01*
X27781096Y-37774786D01*
X27830441Y-37761725D01*
X27900994Y-37752712D01*
X27996994Y-37747202D01*
X28122679Y-37744652D01*
X28282288Y-37744518D01*
X28477255Y-37746223D01*
G37*
G36*
X28961385Y-20349959D02*
G01*
X28961385Y-20582986D01*
X29194412Y-20582986D01*
X29427440Y-20582986D01*
X29427440Y-20349959D01*
X29427440Y-20116931D01*
X29660467Y-20116931D01*
X29893495Y-20116931D01*
X29893495Y-20816014D01*
X29893495Y-21515096D01*
X29660467Y-21515096D01*
X29427440Y-21515096D01*
X29427440Y-21282069D01*
X29427440Y-21049041D01*
X29194412Y-21049041D01*
X28961385Y-21049041D01*
X28961385Y-20816014D01*
X28961385Y-20582986D01*
X28738949Y-20582986D01*
X28516514Y-20582986D01*
X28516514Y-20816014D01*
X28516514Y-21049041D01*
X28283486Y-21049041D01*
X28050459Y-21049041D01*
X28050459Y-21282069D01*
X28050459Y-21515096D01*
X27817431Y-21515096D01*
X27584404Y-21515096D01*
X27584404Y-21748124D01*
X27584404Y-21981151D01*
X27351376Y-21981151D01*
X27118349Y-21981151D01*
X27118349Y-21748124D01*
X27118349Y-21515096D01*
X27351376Y-21515096D01*
X27584404Y-21515096D01*
X27584404Y-21282069D01*
X27584404Y-21049041D01*
X27817431Y-21049041D01*
X28050459Y-21049041D01*
X28050459Y-20816014D01*
X28050459Y-20582986D01*
X28283486Y-20582986D01*
X28516514Y-20582986D01*
X28516514Y-20349959D01*
X28516514Y-20116931D01*
X28738949Y-20116931D01*
X28961385Y-20116931D01*
X28961385Y-20349959D01*
G37*
G36*
X3391774Y-38996845D02*
G01*
X3550520Y-39002753D01*
X3830387Y-40252627D01*
X3880376Y-40475895D01*
X3927538Y-40686563D01*
X3971070Y-40881051D01*
X4010172Y-41055779D01*
X4044044Y-41207169D01*
X4071884Y-41331640D01*
X4092892Y-41425614D01*
X4106266Y-41485510D01*
X4111206Y-41507750D01*
X4111215Y-41507798D01*
X4092066Y-41510145D01*
X4040009Y-41511959D01*
X3964502Y-41512972D01*
X3924334Y-41513095D01*
X3736491Y-41513095D01*
X3685342Y-41253587D01*
X3634194Y-40994079D01*
X3390329Y-40988148D01*
X3146465Y-40982218D01*
X3097951Y-41247656D01*
X3049437Y-41513095D01*
X2858274Y-41513095D01*
X2763282Y-41511560D01*
X2705230Y-41506437D01*
X2678783Y-41496950D01*
X2676440Y-41486614D01*
X2682593Y-41461664D01*
X2697061Y-41399032D01*
X2719018Y-41302405D01*
X2747635Y-41175472D01*
X2782086Y-41021919D01*
X2821542Y-40845436D01*
X2865177Y-40649709D01*
X2876927Y-40596873D01*
X3223794Y-40596873D01*
X3236993Y-40611130D01*
X3281514Y-40619650D01*
X3362072Y-40623165D01*
X3394207Y-40623353D01*
X3478775Y-40622802D01*
X3528954Y-40619566D01*
X3552723Y-40611270D01*
X3558061Y-40595539D01*
X3554344Y-40575688D01*
X3546625Y-40539436D01*
X3532710Y-40469633D01*
X3514179Y-40374377D01*
X3492613Y-40261767D01*
X3476845Y-40178482D01*
X3454168Y-40060123D01*
X3433324Y-39955007D01*
X3415888Y-39870795D01*
X3403434Y-39815146D01*
X3398476Y-39797165D01*
X3391734Y-39809353D01*
X3378375Y-39855783D01*
X3360000Y-39929131D01*
X3338207Y-40022074D01*
X3314598Y-40127289D01*
X3290770Y-40237453D01*
X3268324Y-40345244D01*
X3248860Y-40443336D01*
X3233976Y-40524409D01*
X3225273Y-40581138D01*
X3223794Y-40596873D01*
X2876927Y-40596873D01*
X2912163Y-40438427D01*
X2959399Y-40225536D01*
X3233028Y-38990938D01*
X3391774Y-38996845D01*
G37*
G36*
X31503503Y-37435113D02*
G01*
X31503503Y-41682569D01*
X27171981Y-41682569D01*
X22840460Y-41682569D01*
X21600505Y-40291327D01*
X20360551Y-38900085D01*
X20360551Y-38038866D01*
X24502085Y-38038866D01*
X24502209Y-38345623D01*
X24502611Y-38612738D01*
X24503341Y-38842936D01*
X24504445Y-39038942D01*
X24505973Y-39203483D01*
X24507971Y-39339283D01*
X24510489Y-39449069D01*
X24513574Y-39535565D01*
X24517275Y-39601498D01*
X24521639Y-39649593D01*
X24526714Y-39682575D01*
X24531368Y-39700053D01*
X24580642Y-39792879D01*
X24658205Y-39886577D01*
X24752120Y-39968713D01*
X24841034Y-40022603D01*
X24946956Y-40072147D01*
X27118349Y-40072147D01*
X29289742Y-40072147D01*
X29395663Y-40022717D01*
X29473791Y-39976143D01*
X29551800Y-39914069D01*
X29583084Y-39882887D01*
X29610780Y-39852924D01*
X29634890Y-39826641D01*
X29655662Y-39801040D01*
X29673345Y-39773127D01*
X29688185Y-39739906D01*
X29700430Y-39698382D01*
X29710328Y-39645559D01*
X29718126Y-39578442D01*
X29724071Y-39494035D01*
X29728412Y-39389342D01*
X29731396Y-39261369D01*
X29733271Y-39107119D01*
X29734284Y-38923598D01*
X29734682Y-38707809D01*
X29734713Y-38456758D01*
X29734625Y-38167448D01*
X29734612Y-38049458D01*
X29734612Y-36460634D01*
X29683995Y-36348618D01*
X29611391Y-36231814D01*
X29511340Y-36132031D01*
X29395206Y-36059441D01*
X29335763Y-36036850D01*
X29294863Y-36031072D01*
X29215178Y-36025804D01*
X29100288Y-36021046D01*
X28953775Y-36016798D01*
X28779218Y-36013059D01*
X28580198Y-36009831D01*
X28360296Y-36007112D01*
X28123092Y-36004904D01*
X27872167Y-36003205D01*
X27611101Y-36002016D01*
X27343476Y-36001337D01*
X27072871Y-36001167D01*
X26802866Y-36001508D01*
X26537044Y-36002358D01*
X26278983Y-36003718D01*
X26032265Y-36005588D01*
X25800471Y-36007968D01*
X25587180Y-36010858D01*
X25395973Y-36014258D01*
X25230432Y-36018167D01*
X25094135Y-36022586D01*
X24990665Y-36027516D01*
X24923601Y-36032955D01*
X24900934Y-36036850D01*
X24781062Y-36092367D01*
X24671696Y-36180073D01*
X24584199Y-36289793D01*
X24552702Y-36348618D01*
X24502085Y-36460634D01*
X24502085Y-38038866D01*
X20360551Y-38038866D01*
X20360551Y-37103087D01*
X20360551Y-36460634D01*
X20360551Y-35306089D01*
X21408973Y-35306089D01*
X22457395Y-35306089D01*
X23797505Y-34247249D01*
X25137615Y-33188409D01*
X28320559Y-33188033D01*
X31503503Y-33187657D01*
X31503503Y-37435113D01*
G37*
G36*
X26652294Y-19883904D02*
G01*
X26652294Y-20116931D01*
X26885321Y-20116931D01*
X27118349Y-20116931D01*
X27118349Y-20349959D01*
X27118349Y-20582986D01*
X26419266Y-20582986D01*
X25720184Y-20582986D01*
X25720184Y-20349959D01*
X25720184Y-20116931D01*
X25487156Y-20116931D01*
X25254129Y-20116931D01*
X25254129Y-20582986D01*
X25254129Y-21049041D01*
X25486439Y-21049041D01*
X25718750Y-21049041D01*
X25724763Y-21276773D01*
X25730776Y-21504504D01*
X25958507Y-21510517D01*
X26186239Y-21516530D01*
X26186239Y-21282785D01*
X26186239Y-21049041D01*
X26419266Y-21049041D01*
X26652294Y-21049041D01*
X26652294Y-21737242D01*
X26652294Y-22425443D01*
X27346080Y-22431029D01*
X28039867Y-22436614D01*
X28045576Y-22897373D01*
X28051285Y-23358132D01*
X27817844Y-23358132D01*
X27584404Y-23358132D01*
X27584404Y-23125105D01*
X27584404Y-22892077D01*
X26885321Y-22892077D01*
X26186239Y-22892077D01*
X26186239Y-22658333D01*
X26186239Y-22424589D01*
X25958507Y-22430601D01*
X25730776Y-22436614D01*
X25724763Y-22664346D01*
X25718750Y-22892077D01*
X25486439Y-22892077D01*
X25254129Y-22892077D01*
X25254129Y-23125105D01*
X25254129Y-23358132D01*
X25031693Y-23358132D01*
X24809258Y-23358132D01*
X24809258Y-23824187D01*
X24809258Y-24290242D01*
X24576230Y-24290242D01*
X24343203Y-24290242D01*
X24343203Y-24057215D01*
X24343203Y-23824187D01*
X24110175Y-23824187D01*
X23877148Y-23824187D01*
X23877148Y-23591160D01*
X23877148Y-23358132D01*
X24343203Y-23358132D01*
X24809258Y-23358132D01*
X24809258Y-23125105D01*
X24809258Y-22892077D01*
X25031693Y-22892077D01*
X25254129Y-22892077D01*
X25254129Y-22436614D01*
X25254129Y-21981151D01*
X25487156Y-21981151D01*
X25720184Y-21981151D01*
X25720184Y-21748124D01*
X25720184Y-21515096D01*
X25264721Y-21515096D01*
X24809258Y-21515096D01*
X24809258Y-21970559D01*
X24809258Y-22426022D01*
X24576230Y-22426022D01*
X24343203Y-22426022D01*
X24343203Y-22658356D01*
X24343203Y-22890689D01*
X24104879Y-22896679D01*
X24031982Y-22897832D01*
X23922606Y-22898642D01*
X23782637Y-22899106D01*
X23617964Y-22899224D01*
X23434475Y-22898995D01*
X23238055Y-22898416D01*
X23034595Y-22897488D01*
X22939742Y-22896939D01*
X22012928Y-22891209D01*
X22012928Y-22658616D01*
X22012928Y-22426022D01*
X21779184Y-22426022D01*
X21546872Y-22426022D01*
X21546872Y-21737532D01*
X21546872Y-21734001D01*
X21546872Y-21515096D01*
X22012928Y-21515096D01*
X22012928Y-21734001D01*
X22014217Y-21826414D01*
X22017698Y-21902452D01*
X22022789Y-21952519D01*
X22027050Y-21967028D01*
X22052917Y-21972907D01*
X22111552Y-21977588D01*
X22193358Y-21980490D01*
X22260078Y-21981151D01*
X22478983Y-21981151D01*
X22478983Y-21748124D01*
X22478983Y-21515096D01*
X22945038Y-21515096D01*
X23178065Y-21515096D01*
X23411093Y-21515096D01*
X23411093Y-21748124D01*
X23411093Y-21981151D01*
X23178065Y-21981151D01*
X22945038Y-21981151D01*
X22945038Y-22203587D01*
X22945038Y-22426022D01*
X23411088Y-22426022D01*
X23877139Y-22426022D01*
X23876531Y-21737532D01*
X23875923Y-21049041D01*
X24343203Y-21049041D01*
X24576230Y-21049041D01*
X24809258Y-21049041D01*
X24809258Y-20816014D01*
X24809258Y-20582986D01*
X24576230Y-20582986D01*
X24343203Y-20582986D01*
X24343203Y-20816014D01*
X24343203Y-21049041D01*
X23875923Y-21049041D01*
X23410480Y-21049041D01*
X22945038Y-21049041D01*
X22945038Y-21282069D01*
X22945038Y-21515096D01*
X22478983Y-21515096D01*
X22245955Y-21515096D01*
X22012928Y-21515096D01*
X21546872Y-21515096D01*
X21546872Y-21282069D01*
X21546872Y-21049041D01*
X21779900Y-21049041D01*
X22012928Y-21049041D01*
X22012928Y-20816014D01*
X22012928Y-20582986D01*
X22245955Y-20582986D01*
X22478983Y-20582986D01*
X22478983Y-20816014D01*
X22478983Y-21049041D01*
X22712010Y-21049041D01*
X22945038Y-21049041D01*
X22945038Y-20816014D01*
X22945038Y-20582986D01*
X23644120Y-20582986D01*
X24343203Y-20582986D01*
X24343203Y-20116931D01*
X24343203Y-19650876D01*
X25497748Y-19650876D01*
X26652294Y-19650876D01*
X26652294Y-19883904D01*
G37*
G36*
X31461134Y-22934446D02*
G01*
X31461134Y-32912260D01*
X28243324Y-32912260D01*
X25025513Y-32912260D01*
X23705347Y-33971477D01*
X22385180Y-35030693D01*
X11204392Y-35030693D01*
X23603Y-35030693D01*
X23603Y-33352249D01*
X23603Y-31673805D01*
X156005Y-31855813D01*
X190775Y-31903829D01*
X247860Y-31982936D01*
X324866Y-32089804D01*
X419399Y-32221108D01*
X529064Y-32373518D01*
X651469Y-32543708D01*
X784219Y-32728351D01*
X924919Y-32924117D01*
X1071177Y-33127681D01*
X1156964Y-33247111D01*
X1301344Y-33447839D01*
X1438661Y-33638184D01*
X1566901Y-33815391D01*
X1684051Y-33976701D01*
X1788096Y-34119359D01*
X1877021Y-34240608D01*
X1948813Y-34337691D01*
X2001457Y-34407851D01*
X2032939Y-34448331D01*
X2041410Y-34457558D01*
X2044437Y-34437249D01*
X2047275Y-34378468D01*
X2049870Y-34285111D01*
X2052164Y-34161073D01*
X2054104Y-34010251D01*
X2055633Y-33836541D01*
X2055707Y-33823186D01*
X3222435Y-33823186D01*
X9524771Y-33823186D01*
X15827106Y-33823186D01*
X15827106Y-28828507D01*
X16854411Y-28828507D01*
X16859770Y-28852360D01*
X16873013Y-28915146D01*
X16893608Y-29014271D01*
X16921025Y-29147144D01*
X16954734Y-29311171D01*
X16994205Y-29503760D01*
X17038907Y-29722319D01*
X17088309Y-29964255D01*
X17141881Y-30226975D01*
X17199093Y-30507887D01*
X17259414Y-30804399D01*
X17322314Y-31113917D01*
X17362706Y-31312844D01*
X17426948Y-31629166D01*
X17488944Y-31934094D01*
X17548164Y-32225037D01*
X17604077Y-32499403D01*
X17656152Y-32754600D01*
X17703860Y-32988036D01*
X17746669Y-33197120D01*
X17784050Y-33379258D01*
X17815472Y-33531861D01*
X17840403Y-33652334D01*
X17858315Y-33738087D01*
X17868675Y-33786528D01*
X17871081Y-33796706D01*
X17887574Y-33807789D01*
X17930697Y-33815601D01*
X18004845Y-33820502D01*
X18114411Y-33822851D01*
X18194570Y-33823186D01*
X18508486Y-33823186D01*
X20000417Y-33823186D01*
X20360551Y-33823186D01*
X20720684Y-33823186D01*
X21419767Y-33823186D01*
X21779900Y-33823186D01*
X22140033Y-33823186D01*
X22140033Y-32838115D01*
X22140033Y-31853044D01*
X22453347Y-31853044D01*
X22666743Y-31846815D01*
X22846457Y-31826575D01*
X22999535Y-31790001D01*
X23133020Y-31734767D01*
X23253958Y-31658549D01*
X23369393Y-31559022D01*
X23382086Y-31546522D01*
X23512510Y-31388885D01*
X23618186Y-31203433D01*
X23655766Y-31102131D01*
X27504672Y-31102131D01*
X27507137Y-31156274D01*
X27527581Y-31200692D01*
X27564068Y-31242807D01*
X27612387Y-31284213D01*
X27654232Y-31298012D01*
X27695080Y-31293887D01*
X27755354Y-31273421D01*
X27799709Y-31246158D01*
X27836157Y-31195117D01*
X27875487Y-31108038D01*
X27915490Y-30990943D01*
X27953959Y-30849855D01*
X27969494Y-30783236D01*
X27993434Y-30638131D01*
X28008064Y-30469479D01*
X28013051Y-30292558D01*
X28008059Y-30122642D01*
X27992752Y-29975007D01*
X27987859Y-29946456D01*
X27961876Y-29827353D01*
X27929342Y-29707452D01*
X27893196Y-29595111D01*
X27856374Y-29498683D01*
X27821814Y-29426526D01*
X27792453Y-29386996D01*
X27790747Y-29385722D01*
X27713616Y-29355439D01*
X27630797Y-29360630D01*
X27557522Y-29399924D01*
X27549549Y-29407408D01*
X27521898Y-29441637D01*
X27507179Y-29481214D01*
X27505849Y-29533379D01*
X27518360Y-29605368D01*
X27545169Y-29704419D01*
X27574089Y-29798165D01*
X27603948Y-29904922D01*
X27623941Y-30011061D01*
X27636554Y-30132478D01*
X27642299Y-30234517D01*
X27644877Y-30423995D01*
X27633266Y-30588446D01*
X27605438Y-30743426D01*
X27559366Y-30904494D01*
X27552225Y-30925826D01*
X27519822Y-31028551D01*
X27504672Y-31102131D01*
X23655766Y-31102131D01*
X23693620Y-31000091D01*
X23702038Y-30968457D01*
X23717298Y-30881109D01*
X23723587Y-30815654D01*
X26782631Y-30815654D01*
X26785521Y-30862322D01*
X26803775Y-30903158D01*
X26813443Y-30917742D01*
X26877053Y-30979255D01*
X26949964Y-31001014D01*
X27025817Y-30982295D01*
X27074402Y-30947415D01*
X27125791Y-30877443D01*
X27170573Y-30772833D01*
X27206444Y-30641095D01*
X27231102Y-30489740D01*
X27238215Y-30413224D01*
X27240182Y-30282110D01*
X27229497Y-30146025D01*
X27208106Y-30012967D01*
X27177954Y-29890936D01*
X27140985Y-29787930D01*
X27099145Y-29711947D01*
X27058181Y-29672871D01*
X26976369Y-29650141D01*
X26893861Y-29662325D01*
X26831397Y-29701873D01*
X26798447Y-29742999D01*
X26783574Y-29788709D01*
X26786554Y-29848693D01*
X26807161Y-29932642D01*
X26824716Y-29988824D01*
X26858135Y-30136495D01*
X26871514Y-30301390D01*
X26864850Y-30467130D01*
X26838137Y-30617337D01*
X26824903Y-30660758D01*
X26795594Y-30752138D01*
X26782631Y-30815654D01*
X23723587Y-30815654D01*
X23728897Y-30760383D01*
X23736842Y-30615111D01*
X23741138Y-30454124D01*
X23741793Y-30286255D01*
X23738811Y-30120336D01*
X23732200Y-29965197D01*
X23721966Y-29829672D01*
X23708115Y-29722591D01*
X23701129Y-29687834D01*
X23631093Y-29471890D01*
X23529559Y-29283126D01*
X23475579Y-29217415D01*
X28219933Y-29217415D01*
X28226662Y-29262718D01*
X28244624Y-29334980D01*
X28270482Y-29421376D01*
X28282181Y-29456702D01*
X28338538Y-29635628D01*
X28378186Y-29798017D01*
X28403444Y-29958502D01*
X28416626Y-30131722D01*
X28420062Y-30327773D01*
X28415152Y-30533375D01*
X28400010Y-30711294D01*
X28372387Y-30875457D01*
X28330036Y-31039790D01*
X28281016Y-31189339D01*
X28241713Y-31312540D01*
X28223472Y-31405264D01*
X28226879Y-31474124D01*
X28252521Y-31525737D01*
X28300985Y-31566716D01*
X28315263Y-31575243D01*
X28377733Y-31590119D01*
X28450931Y-31579951D01*
X28514006Y-31547941D01*
X28518558Y-31544022D01*
X28550154Y-31499056D01*
X28587274Y-31419478D01*
X28627395Y-31312275D01*
X28667993Y-31184434D01*
X28706543Y-31042939D01*
X28720729Y-30984487D01*
X28754909Y-30797868D01*
X28777916Y-30586040D01*
X28788954Y-30364876D01*
X28787225Y-30150246D01*
X28772189Y-29960059D01*
X28749816Y-29815945D01*
X28719179Y-29666472D01*
X28682553Y-29519249D01*
X28642215Y-29381888D01*
X28600437Y-29261999D01*
X28559497Y-29167193D01*
X28521669Y-29105081D01*
X28514082Y-29096651D01*
X28453062Y-29061885D01*
X28381821Y-29058456D01*
X28312005Y-29081584D01*
X28255257Y-29126489D01*
X28223221Y-29188389D01*
X28219933Y-29217415D01*
X23475579Y-29217415D01*
X23398180Y-29123195D01*
X23238607Y-28993750D01*
X23083158Y-28912475D01*
X28941409Y-28912475D01*
X28950487Y-28996095D01*
X28983772Y-29107276D01*
X28993988Y-29135095D01*
X29102319Y-29482202D01*
X29171746Y-29841491D01*
X29202232Y-30208274D01*
X29193739Y-30577866D01*
X29146230Y-30945581D01*
X29059668Y-31306732D01*
X29012465Y-31453013D01*
X28970685Y-31581694D01*
X28947690Y-31678717D01*
X28943838Y-31750576D01*
X28959487Y-31803764D01*
X28994993Y-31844775D01*
X29035530Y-31871823D01*
X29098315Y-31886779D01*
X29170679Y-31876276D01*
X29231424Y-31843980D01*
X29239020Y-31836641D01*
X29270900Y-31787504D01*
X29309274Y-31704210D01*
X29351391Y-31593950D01*
X29394503Y-31463915D01*
X29435501Y-31322630D01*
X29521577Y-30926684D01*
X29565309Y-30531956D01*
X29566691Y-30138291D01*
X29525719Y-29745536D01*
X29442388Y-29353537D01*
X29371847Y-29118009D01*
X29322825Y-28981196D01*
X29277905Y-28881593D01*
X29233915Y-28814672D01*
X29187685Y-28775904D01*
X29136041Y-28760760D01*
X29121241Y-28760134D01*
X29054078Y-28773651D01*
X28996018Y-28804040D01*
X28956573Y-28850447D01*
X28941409Y-28912475D01*
X23083158Y-28912475D01*
X23052495Y-28896443D01*
X22847853Y-28834260D01*
X22788656Y-28824374D01*
X22711876Y-28816603D01*
X22612878Y-28810764D01*
X22487027Y-28806670D01*
X22329685Y-28804138D01*
X22136219Y-28802983D01*
X22060592Y-28802870D01*
X21419767Y-28802502D01*
X21419767Y-31312844D01*
X21419767Y-33823186D01*
X20720684Y-33823186D01*
X20720684Y-31312844D01*
X20720684Y-28802502D01*
X20360551Y-28802502D01*
X20000417Y-28802502D01*
X20000417Y-31312844D01*
X20000417Y-33823186D01*
X18508486Y-33823186D01*
X19012645Y-31360509D01*
X19022405Y-31312844D01*
X19077568Y-31043429D01*
X19140246Y-30737423D01*
X19200140Y-30445108D01*
X19256713Y-30169102D01*
X19309429Y-29912021D01*
X19357751Y-29676483D01*
X19401140Y-29465104D01*
X19439061Y-29280501D01*
X19470975Y-29125292D01*
X19496346Y-29002094D01*
X19514636Y-28913523D01*
X19525310Y-28862197D01*
X19527880Y-28850167D01*
X19538955Y-28802502D01*
X19155341Y-28802502D01*
X19033143Y-28803222D01*
X18927025Y-28805222D01*
X18843650Y-28808264D01*
X18789685Y-28812107D01*
X18771727Y-28816259D01*
X18768328Y-28841947D01*
X18758554Y-28905586D01*
X18743042Y-29003345D01*
X18722426Y-29131389D01*
X18697342Y-29285886D01*
X18668425Y-29463004D01*
X18636311Y-29658908D01*
X18601635Y-29869767D01*
X18565032Y-30091746D01*
X18527139Y-30321014D01*
X18488590Y-30553738D01*
X18450020Y-30786083D01*
X18412066Y-31014218D01*
X18375363Y-31234309D01*
X18340545Y-31442524D01*
X18308249Y-31635030D01*
X18279110Y-31807993D01*
X18253763Y-31957580D01*
X18232844Y-32079960D01*
X18216988Y-32171298D01*
X18206831Y-32227762D01*
X18203324Y-32244954D01*
X18191861Y-32281769D01*
X18184331Y-32286811D01*
X18176743Y-32256336D01*
X18169476Y-32213178D01*
X18163648Y-32177509D01*
X18151557Y-32103419D01*
X18133757Y-31994303D01*
X18110800Y-31853557D01*
X18083241Y-31684577D01*
X18051633Y-31490758D01*
X18016530Y-31275495D01*
X17978486Y-31042185D01*
X17938055Y-30794222D01*
X17895791Y-30535003D01*
X17884454Y-30465472D01*
X17615050Y-28813095D01*
X17229984Y-28807322D01*
X17088933Y-28805789D01*
X16985589Y-28806204D01*
X16915322Y-28808829D01*
X16873503Y-28813923D01*
X16855502Y-28821749D01*
X16854411Y-28828507D01*
X15827106Y-28828507D01*
X15827106Y-27531443D01*
X16928691Y-27531443D01*
X18549329Y-27531443D01*
X20169966Y-27531443D01*
X20169622Y-25910843D01*
X20169277Y-24290242D01*
X18548984Y-24290242D01*
X16928691Y-24290242D01*
X16928691Y-25910843D01*
X16928691Y-27531443D01*
X15827106Y-27531443D01*
X15827106Y-25910843D01*
X15827106Y-25031693D01*
X15827106Y-23824187D01*
X17839728Y-23824187D01*
X18072700Y-23824187D01*
X18305671Y-23824187D01*
X18305671Y-23591160D01*
X18305671Y-23358132D01*
X18538699Y-23358132D01*
X18771727Y-23358132D01*
X18771727Y-23124691D01*
X18771727Y-22891251D01*
X18310968Y-22896960D01*
X17850209Y-22902669D01*
X17844968Y-23363428D01*
X17839728Y-23824187D01*
X15827106Y-23824187D01*
X15827106Y-20349959D01*
X16928691Y-20349959D01*
X16928691Y-20582986D01*
X17384154Y-20582986D01*
X17839616Y-20582986D01*
X17839616Y-20349959D01*
X17839616Y-20116931D01*
X18305671Y-20116931D01*
X18771727Y-20116931D01*
X18771727Y-19650876D01*
X18771727Y-19184821D01*
X18538699Y-19184821D01*
X18305671Y-19184821D01*
X18305671Y-19417132D01*
X18305671Y-19649443D01*
X18077940Y-19655455D01*
X17850209Y-19661468D01*
X17844196Y-19889200D01*
X17838183Y-20116931D01*
X17383437Y-20116931D01*
X16928691Y-20116931D01*
X16928691Y-20349959D01*
X15827106Y-20349959D01*
X15827106Y-20116931D01*
X15827106Y-18496331D01*
X16928691Y-18496331D01*
X16928691Y-18718766D01*
X17384154Y-18718766D01*
X17839616Y-18718766D01*
X17839616Y-18951793D01*
X17839616Y-19184821D01*
X17384154Y-19184821D01*
X16928691Y-19184821D01*
X16928691Y-19417848D01*
X16928691Y-19650876D01*
X17384154Y-19650876D01*
X17839616Y-19650876D01*
X17839616Y-19417848D01*
X17839616Y-19184821D01*
X18072644Y-19184821D01*
X18305671Y-19184821D01*
X18305671Y-18951793D01*
X18305671Y-18718766D01*
X18538699Y-18718766D01*
X18771727Y-18718766D01*
X18771727Y-18485738D01*
X18771727Y-18252711D01*
X19004754Y-18252711D01*
X19237782Y-18252711D01*
X19237782Y-18485738D01*
X19237782Y-18718766D01*
X19470809Y-18718766D01*
X19703837Y-18718766D01*
X19703837Y-18951793D01*
X19703837Y-19184821D01*
X19470809Y-19184821D01*
X19237782Y-19184821D01*
X19237782Y-19417848D01*
X19237782Y-19650876D01*
X19470809Y-19650876D01*
X19703837Y-19650876D01*
X19703837Y-19883904D01*
X19703837Y-20116931D01*
X19470809Y-20116931D01*
X19237782Y-20116931D01*
X19237782Y-20349959D01*
X19237782Y-20582986D01*
X18771727Y-20582986D01*
X18305671Y-20582986D01*
X18305671Y-20816014D01*
X18305671Y-21049041D01*
X17617181Y-21049041D01*
X16928691Y-21049041D01*
X16928691Y-21515096D01*
X16928691Y-21981151D01*
X17384154Y-21981151D01*
X17839616Y-21981151D01*
X17839616Y-22203587D01*
X17839616Y-22426022D01*
X18072644Y-22426022D01*
X18305671Y-22426022D01*
X18305671Y-21970559D01*
X18305671Y-21515096D01*
X18538699Y-21515096D01*
X18771727Y-21515096D01*
X18771727Y-21970559D01*
X18771727Y-22426022D01*
X19004754Y-22426022D01*
X19237782Y-22426022D01*
X19237782Y-22659049D01*
X19237782Y-22892077D01*
X19703837Y-22892077D01*
X20169892Y-22892077D01*
X20169892Y-23125105D01*
X20169892Y-23358132D01*
X19936864Y-23358132D01*
X19703837Y-23358132D01*
X19703837Y-23591160D01*
X19703837Y-23824187D01*
X20169892Y-23824187D01*
X20635947Y-23824187D01*
X20635947Y-24057215D01*
X20635947Y-24290242D01*
X21091410Y-24290242D01*
X21546872Y-24290242D01*
X21546872Y-24057215D01*
X21546872Y-23824187D01*
X21779900Y-23824187D01*
X22012928Y-23824187D01*
X22012928Y-24523270D01*
X22012928Y-25222352D01*
X21779900Y-25222352D01*
X21546872Y-25222352D01*
X21546872Y-25677815D01*
X21546872Y-26133278D01*
X21324437Y-26133278D01*
X21102002Y-26133278D01*
X21100764Y-25672519D01*
X21100499Y-25519144D01*
X21100491Y-25363642D01*
X21100721Y-25216831D01*
X21101173Y-25089531D01*
X21101827Y-24992563D01*
X21101913Y-24984029D01*
X21104299Y-24756297D01*
X20870123Y-24756297D01*
X20635947Y-24756297D01*
X20635947Y-25444788D01*
X20635947Y-26133278D01*
X20868974Y-26133278D01*
X21102002Y-26133278D01*
X21102002Y-26366306D01*
X21102002Y-26599333D01*
X20868974Y-26599333D01*
X20635947Y-26599333D01*
X20635947Y-26832361D01*
X20635947Y-27065388D01*
X20868974Y-27065388D01*
X21102002Y-27065388D01*
X21102002Y-27298416D01*
X21102002Y-27531443D01*
X21557465Y-27531443D01*
X22012928Y-27531443D01*
X22012928Y-26609925D01*
X22012928Y-25688407D01*
X22245955Y-25688407D01*
X22478983Y-25688407D01*
X22478983Y-25455380D01*
X22478983Y-25222352D01*
X22712010Y-25222352D01*
X22945038Y-25222352D01*
X22945038Y-25455380D01*
X22945038Y-25688407D01*
X23178065Y-25688407D01*
X23411093Y-25688407D01*
X23411093Y-25910843D01*
X23411093Y-26133278D01*
X22945038Y-26133278D01*
X22478983Y-26133278D01*
X22478983Y-26832361D01*
X22478983Y-27531443D01*
X22712010Y-27531443D01*
X22945038Y-27531443D01*
X22945038Y-27065388D01*
X22945038Y-26599333D01*
X23178065Y-26599333D01*
X23411093Y-26599333D01*
X23411093Y-26366306D01*
X23411093Y-26133278D01*
X23644120Y-26133278D01*
X23877148Y-26133278D01*
X23877148Y-26366306D01*
X23877148Y-26599333D01*
X24110175Y-26599333D01*
X24343203Y-26599333D01*
X24343203Y-26832361D01*
X24343203Y-27065388D01*
X24104879Y-27066626D01*
X23975407Y-27066926D01*
X23830143Y-27066683D01*
X23692741Y-27065957D01*
X23638824Y-27065477D01*
X23411093Y-27063091D01*
X23411093Y-27297267D01*
X23411093Y-27531443D01*
X23877148Y-27531443D01*
X24343203Y-27531443D01*
X24343203Y-27298416D01*
X24343203Y-27065388D01*
X24576230Y-27065388D01*
X24809258Y-27065388D01*
X24809258Y-26832361D01*
X24809258Y-26599333D01*
X25264721Y-26599333D01*
X25720184Y-26599333D01*
X25720184Y-26144587D01*
X25720184Y-25689841D01*
X25492452Y-25683828D01*
X25264721Y-25677815D01*
X25258708Y-25450084D01*
X25252695Y-25222352D01*
X25030976Y-25222352D01*
X24809258Y-25222352D01*
X24809258Y-25910843D01*
X24809258Y-26599333D01*
X24576947Y-26599333D01*
X24344636Y-26599333D01*
X24338623Y-26371602D01*
X24332611Y-26143870D01*
X24104879Y-26137857D01*
X23877148Y-26131845D01*
X23877148Y-25677815D01*
X23877148Y-25223786D01*
X24104879Y-25217773D01*
X24332611Y-25211760D01*
X24338623Y-24984029D01*
X24344636Y-24756297D01*
X24576947Y-24756297D01*
X24809258Y-24756297D01*
X24809258Y-24523270D01*
X24809258Y-24290242D01*
X25264721Y-24290242D01*
X25720184Y-24290242D01*
X25720184Y-24523270D01*
X25720184Y-24756297D01*
X25486439Y-24756297D01*
X25252695Y-24756297D01*
X25258708Y-24984029D01*
X25264721Y-25211760D01*
X25491743Y-25217766D01*
X25718765Y-25223771D01*
X25724770Y-25450793D01*
X25730776Y-25677815D01*
X26657590Y-25683334D01*
X27584404Y-25688853D01*
X27584404Y-26143376D01*
X27584404Y-26597900D01*
X27812135Y-26603912D01*
X28039867Y-26609925D01*
X28045879Y-26837657D01*
X28051892Y-27065388D01*
X27585120Y-27065388D01*
X27118349Y-27065388D01*
X27118349Y-26599333D01*
X27118349Y-26133278D01*
X26652294Y-26133278D01*
X26186239Y-26133278D01*
X26186239Y-26599333D01*
X26186239Y-27065388D01*
X25958507Y-27066351D01*
X25831202Y-27067248D01*
X25685942Y-27068822D01*
X25547129Y-27070791D01*
X25497748Y-27071647D01*
X25264721Y-27075980D01*
X25258708Y-27303712D01*
X25252695Y-27531443D01*
X25719467Y-27531443D01*
X26186239Y-27531443D01*
X26186239Y-27298416D01*
X26186239Y-27065388D01*
X26419266Y-27065388D01*
X26652294Y-27065388D01*
X26652294Y-27298416D01*
X26652294Y-27531443D01*
X27806839Y-27531443D01*
X28961385Y-27531443D01*
X28961385Y-27298416D01*
X28961385Y-27065388D01*
X29193695Y-27065388D01*
X29426006Y-27065388D01*
X29432019Y-26837657D01*
X29438032Y-26609925D01*
X29665763Y-26603912D01*
X29893495Y-26597900D01*
X29893495Y-26831644D01*
X29893495Y-27065388D01*
X30126522Y-27065388D01*
X30359550Y-27065388D01*
X30359550Y-26599333D01*
X30359550Y-26133278D01*
X30126522Y-26133278D01*
X29893495Y-26133278D01*
X29893495Y-25910843D01*
X29893495Y-25688407D01*
X30126522Y-25688407D01*
X30359550Y-25688407D01*
X30359550Y-25455380D01*
X30359550Y-25222352D01*
X30126522Y-25222352D01*
X29893495Y-25222352D01*
X29893495Y-24523270D01*
X29893495Y-23824187D01*
X30126522Y-23824187D01*
X30359550Y-23824187D01*
X30359550Y-23591160D01*
X30359550Y-23358132D01*
X30126522Y-23358132D01*
X29893495Y-23358132D01*
X29893495Y-23125105D01*
X29893495Y-22892077D01*
X30126522Y-22892077D01*
X30359550Y-22892077D01*
X30359550Y-22659049D01*
X30359550Y-22426022D01*
X30126522Y-22426022D01*
X29893495Y-22426022D01*
X29893495Y-22659049D01*
X29893495Y-22892077D01*
X29427440Y-22892077D01*
X28961385Y-22892077D01*
X28961385Y-22203587D01*
X28961385Y-21515096D01*
X29193695Y-21515096D01*
X29426006Y-21515096D01*
X29432019Y-21742828D01*
X29438032Y-21970559D01*
X29898791Y-21976268D01*
X30359550Y-21981978D01*
X30359550Y-21049454D01*
X30359550Y-20116931D01*
X30126522Y-20116931D01*
X29893495Y-20116931D01*
X29893495Y-19883904D01*
X29893495Y-19650876D01*
X30126522Y-19650876D01*
X30359550Y-19650876D01*
X30359550Y-19417848D01*
X30359550Y-19184821D01*
X30126522Y-19184821D01*
X29893495Y-19184821D01*
X29893495Y-19417132D01*
X29893495Y-19649443D01*
X29665763Y-19655455D01*
X29438032Y-19661468D01*
X29432019Y-19889200D01*
X29426006Y-20116931D01*
X29193695Y-20116931D01*
X28961385Y-20116931D01*
X28961385Y-19650876D01*
X28961385Y-19184821D01*
X28738949Y-19184821D01*
X28516514Y-19184821D01*
X28516514Y-19650876D01*
X28516514Y-20116931D01*
X28283486Y-20116931D01*
X28050459Y-20116931D01*
X28050459Y-20349959D01*
X28050459Y-20582986D01*
X27817431Y-20582986D01*
X27584404Y-20582986D01*
X27584404Y-20116931D01*
X27584404Y-19650876D01*
X27118349Y-19650876D01*
X26652294Y-19650876D01*
X26652294Y-19417848D01*
X26652294Y-19184821D01*
X27351376Y-19184821D01*
X28050459Y-19184821D01*
X28050459Y-18729358D01*
X28050459Y-18273895D01*
X27817431Y-18273895D01*
X27584404Y-18273895D01*
X27584404Y-18252711D01*
X28050459Y-18252711D01*
X28283486Y-18252711D01*
X28516514Y-18252711D01*
X28516514Y-18485738D01*
X28516514Y-18718766D01*
X28738949Y-18718766D01*
X28961385Y-18718766D01*
X29428361Y-18718766D01*
X29660928Y-18718766D01*
X29893495Y-18718766D01*
X29893495Y-18263303D01*
X29893495Y-17807840D01*
X29660928Y-17807840D01*
X29428361Y-17807840D01*
X29428361Y-18263303D01*
X29428361Y-18718766D01*
X28961385Y-18718766D01*
X28961385Y-18263303D01*
X28961385Y-17807840D01*
X28505922Y-17807840D01*
X28050459Y-17807840D01*
X28050459Y-18030276D01*
X28050459Y-18252711D01*
X27584404Y-18252711D01*
X27584404Y-18040868D01*
X27584404Y-18030276D01*
X27584404Y-17807840D01*
X27118349Y-17807840D01*
X26652294Y-17807840D01*
X26652294Y-17341785D01*
X27118349Y-17341785D01*
X28738949Y-17341785D01*
X30359550Y-17341785D01*
X30359550Y-15721185D01*
X30359550Y-14100584D01*
X28738949Y-14100584D01*
X27118349Y-14100584D01*
X27118349Y-15721185D01*
X27118349Y-17341785D01*
X26652294Y-17341785D01*
X26652294Y-16875730D01*
X26419266Y-16875730D01*
X26186239Y-16875730D01*
X26186239Y-17108758D01*
X26186239Y-17341785D01*
X25953211Y-17341785D01*
X25720184Y-17341785D01*
X25720184Y-17108758D01*
X25720184Y-16875730D01*
X25487156Y-16875730D01*
X25254129Y-16875730D01*
X25254129Y-17108758D01*
X25254129Y-17341785D01*
X25031693Y-17341785D01*
X24809258Y-17341785D01*
X24809258Y-16875730D01*
X24809258Y-16409675D01*
X24576230Y-16409675D01*
X24343203Y-16409675D01*
X24343203Y-16875730D01*
X24343203Y-17341785D01*
X24110175Y-17341785D01*
X23877148Y-17341785D01*
X23877148Y-16642703D01*
X23877148Y-15943620D01*
X23644120Y-15943620D01*
X23411093Y-15943620D01*
X23411093Y-16642703D01*
X23411093Y-17341785D01*
X23644120Y-17341785D01*
X23877148Y-17341785D01*
X23877148Y-17574813D01*
X23877148Y-17807840D01*
X24110175Y-17807840D01*
X24343203Y-17807840D01*
X24343203Y-18040868D01*
X24343203Y-18273895D01*
X24110175Y-18273895D01*
X23877148Y-18273895D01*
X23877148Y-18496331D01*
X23877148Y-18718766D01*
X23644120Y-18718766D01*
X23411093Y-18718766D01*
X23411093Y-18263303D01*
X23411093Y-17807840D01*
X23178065Y-17807840D01*
X22945038Y-17807840D01*
X22945038Y-18040868D01*
X22945038Y-18273895D01*
X22712010Y-18273895D01*
X22478983Y-18273895D01*
X22478983Y-18495614D01*
X22478983Y-18717333D01*
X22251251Y-18723345D01*
X22023520Y-18729358D01*
X22017507Y-18957090D01*
X22011494Y-19184821D01*
X21779183Y-19184821D01*
X21546872Y-19184821D01*
X21546872Y-18496331D01*
X21546872Y-17807840D01*
X21324437Y-17807840D01*
X21102002Y-17807840D01*
X21102002Y-17341785D01*
X21102002Y-16875730D01*
X21324437Y-16875730D01*
X21546872Y-16875730D01*
X21546872Y-17108758D01*
X21546872Y-17341785D01*
X21779183Y-17341785D01*
X22011494Y-17341785D01*
X22017507Y-17569517D01*
X22023520Y-17797248D01*
X22251251Y-17803261D01*
X22478983Y-17809274D01*
X22478983Y-17575529D01*
X22478983Y-17341785D01*
X22712010Y-17341785D01*
X22945038Y-17341785D01*
X22945038Y-16875730D01*
X22945038Y-16409675D01*
X22478983Y-16409675D01*
X22012928Y-16409675D01*
X22012928Y-16642703D01*
X22012928Y-16875730D01*
X21779900Y-16875730D01*
X21546872Y-16875730D01*
X21546872Y-16642703D01*
X21546872Y-16409675D01*
X21324437Y-16409675D01*
X21102002Y-16409675D01*
X21102002Y-16642703D01*
X21102002Y-16875730D01*
X20868974Y-16875730D01*
X20635947Y-16875730D01*
X20635947Y-17574813D01*
X20635947Y-18273895D01*
X20402919Y-18273895D01*
X20169892Y-18273895D01*
X20169892Y-18496331D01*
X20169892Y-18718766D01*
X19936864Y-18718766D01*
X19703837Y-18718766D01*
X19703837Y-18485738D01*
X19703837Y-18252711D01*
X19936864Y-18252711D01*
X20169892Y-18252711D01*
X20169892Y-18030276D01*
X20169892Y-17807840D01*
X19237782Y-17807840D01*
X18305671Y-17807840D01*
X18305671Y-18040868D01*
X18305671Y-18273895D01*
X18072644Y-18273895D01*
X17839616Y-18273895D01*
X17839616Y-18040868D01*
X17839616Y-17807840D01*
X17606589Y-17807840D01*
X17373561Y-17807840D01*
X17373561Y-18040868D01*
X17373561Y-18273895D01*
X17151126Y-18273895D01*
X16928691Y-18273895D01*
X16928691Y-18496331D01*
X15827106Y-18496331D01*
X15827106Y-18273895D01*
X15827106Y-17341785D01*
X16928691Y-17341785D01*
X18549442Y-17341785D01*
X20170192Y-17341785D01*
X20169625Y-15721185D01*
X20169221Y-14566639D01*
X20635947Y-14566639D01*
X20635947Y-14789075D01*
X20635947Y-15011510D01*
X20868974Y-15011510D01*
X21102002Y-15011510D01*
X21102002Y-15244537D01*
X21102002Y-15477565D01*
X20868974Y-15477565D01*
X20635947Y-15477565D01*
X20635947Y-15943620D01*
X20635947Y-16409675D01*
X20868974Y-16409675D01*
X21102002Y-16409675D01*
X21102002Y-16176647D01*
X21102002Y-15943620D01*
X21557465Y-15943620D01*
X22012928Y-15943620D01*
X22012928Y-15710592D01*
X22012928Y-15477565D01*
X22245955Y-15477565D01*
X22478983Y-15477565D01*
X22478983Y-15710592D01*
X22478983Y-15943620D01*
X22712010Y-15943620D01*
X22945038Y-15943620D01*
X22945038Y-15710592D01*
X22945038Y-15477565D01*
X23178065Y-15477565D01*
X23411093Y-15477565D01*
X23411093Y-15022102D01*
X23411093Y-14566639D01*
X23178065Y-14566639D01*
X22945038Y-14566639D01*
X22945038Y-14789075D01*
X22945038Y-15011510D01*
X22712010Y-15011510D01*
X22478983Y-15011510D01*
X22478983Y-14556047D01*
X22478983Y-14545455D01*
X23877148Y-14545455D01*
X24110175Y-14545455D01*
X24343203Y-14545455D01*
X24343203Y-14778482D01*
X24343203Y-15011510D01*
X25031693Y-15011510D01*
X25720184Y-15011510D01*
X25720184Y-15244537D01*
X25720184Y-15477565D01*
X25031693Y-15477565D01*
X24343203Y-15477565D01*
X24343203Y-15710592D01*
X24343203Y-15943620D01*
X24798666Y-15943620D01*
X25254129Y-15943620D01*
X25254129Y-16176647D01*
X25254129Y-16409675D01*
X25720184Y-16409675D01*
X26186239Y-16409675D01*
X26186239Y-16176647D01*
X26186239Y-15943620D01*
X26419266Y-15943620D01*
X26652294Y-15943620D01*
X26652294Y-15721185D01*
X26652294Y-15710592D01*
X26652294Y-15477565D01*
X26419266Y-15477565D01*
X26186239Y-15477565D01*
X26186239Y-15011510D01*
X26186239Y-14545455D01*
X26419266Y-14545455D01*
X26652294Y-14545455D01*
X26652294Y-14323019D01*
X26652294Y-14100584D01*
X26186239Y-14100584D01*
X25720184Y-14100584D01*
X25720184Y-14333612D01*
X25720184Y-14566639D01*
X25487156Y-14566639D01*
X25254129Y-14566639D01*
X25254129Y-14333612D01*
X25254129Y-14100584D01*
X24565638Y-14100584D01*
X23877148Y-14100584D01*
X23877148Y-14323019D01*
X23877148Y-14545455D01*
X22478983Y-14545455D01*
X22478983Y-14323019D01*
X22478983Y-14100584D01*
X22245955Y-14100584D01*
X22012928Y-14100584D01*
X22012928Y-14333612D01*
X22012928Y-14566639D01*
X21779900Y-14566639D01*
X21546872Y-14566639D01*
X21546872Y-14789075D01*
X21546872Y-15011510D01*
X21324437Y-15011510D01*
X21102002Y-15011510D01*
X21102002Y-14789075D01*
X21102002Y-14566639D01*
X20868974Y-14566639D01*
X20635947Y-14566639D01*
X20169221Y-14566639D01*
X20169214Y-14545455D01*
X21102002Y-14545455D01*
X21324437Y-14545455D01*
X21546872Y-14545455D01*
X21546872Y-14323019D01*
X21546872Y-14100584D01*
X21324437Y-14100584D01*
X21102002Y-14100584D01*
X21102002Y-14323019D01*
X21102002Y-14545455D01*
X20169214Y-14545455D01*
X20169136Y-14323019D01*
X20169058Y-14100584D01*
X18548874Y-14100584D01*
X16928691Y-14100584D01*
X16928691Y-15721185D01*
X16928691Y-17341785D01*
X15827106Y-17341785D01*
X15827106Y-16240200D01*
X9524771Y-16240200D01*
X3222435Y-16240200D01*
X3222435Y-25031693D01*
X3222435Y-33823186D01*
X2055707Y-33823186D01*
X2056696Y-33643839D01*
X2057239Y-33436041D01*
X2057298Y-33339214D01*
X2057298Y-32219711D01*
X1040269Y-30809006D01*
X23240Y-29398301D01*
X28718Y-28246821D01*
X34195Y-27095341D01*
X1004229Y-28441457D01*
X1158007Y-28654805D01*
X1305309Y-28859071D01*
X1444156Y-29051516D01*
X1572568Y-29229401D01*
X1688565Y-29389986D01*
X1790168Y-29530533D01*
X1875399Y-29648303D01*
X1942276Y-29740556D01*
X1988821Y-29804555D01*
X2013055Y-29837558D01*
X2015309Y-29840534D01*
X2024281Y-29851400D01*
X2031840Y-29856795D01*
X2038107Y-29853532D01*
X2043203Y-29838426D01*
X2047251Y-29808291D01*
X2050369Y-29759940D01*
X2052681Y-29690186D01*
X2054306Y-29595845D01*
X2055367Y-29473729D01*
X2055983Y-29320653D01*
X2056277Y-29133430D01*
X2056369Y-28908874D01*
X2056378Y-28760134D01*
X2056399Y-27626773D01*
X1040198Y-26218015D01*
X23996Y-24809258D01*
X23800Y-23655772D01*
X24099Y-23413983D01*
X25054Y-23195459D01*
X26621Y-23002867D01*
X28754Y-22838875D01*
X31408Y-22706149D01*
X34540Y-22607358D01*
X38105Y-22545169D01*
X42059Y-22522249D01*
X42730Y-22522411D01*
X57852Y-22542405D01*
X95786Y-22594145D01*
X154611Y-22674973D01*
X232406Y-22782234D01*
X327250Y-22913271D01*
X437223Y-23065428D01*
X560404Y-23236049D01*
X694873Y-23422478D01*
X838708Y-23622058D01*
X989989Y-23832134D01*
X1030013Y-23887740D01*
X1183185Y-24100440D01*
X1329640Y-24303566D01*
X1467429Y-24494433D01*
X1594607Y-24670356D01*
X1709226Y-24828649D01*
X1809339Y-24966627D01*
X1893000Y-25081604D01*
X1958262Y-25170895D01*
X2003177Y-25231815D01*
X2025799Y-25261677D01*
X2027733Y-25263964D01*
X2034320Y-25266099D01*
X2039876Y-25255496D01*
X2044486Y-25229084D01*
X2048231Y-25183794D01*
X2051197Y-25116556D01*
X2053284Y-25031693D01*
X2053466Y-25024299D01*
X2055122Y-24903955D01*
X2056248Y-24752452D01*
X2056929Y-24566720D01*
X2057246Y-24343691D01*
X2057298Y-24176875D01*
X2056920Y-23935922D01*
X2055820Y-23716545D01*
X2054051Y-23521733D01*
X2051664Y-23354478D01*
X2048711Y-23217772D01*
X2045245Y-23114605D01*
X2041318Y-23047969D01*
X2037200Y-23021214D01*
X2021928Y-22998519D01*
X1983759Y-22944126D01*
X1924596Y-22860693D01*
X1846339Y-22750876D01*
X1750890Y-22617331D01*
X1640150Y-22462715D01*
X1516022Y-22289684D01*
X1380406Y-22100894D01*
X1235205Y-21899002D01*
X1082319Y-21686664D01*
X1020353Y-21600667D01*
X23603Y-20217673D01*
X24277Y-19060421D01*
X24607Y-18801391D01*
X25312Y-18582079D01*
X26456Y-18399837D01*
X28101Y-18252016D01*
X30308Y-18135966D01*
X33141Y-18049039D01*
X36662Y-17988587D01*
X40934Y-17951959D01*
X46019Y-17936508D01*
X50757Y-17937670D01*
X66929Y-17959965D01*
X105879Y-18013995D01*
X165681Y-18097076D01*
X244406Y-18206526D01*
X340124Y-18339662D01*
X450907Y-18493800D01*
X574827Y-18666258D01*
X709955Y-18854351D01*
X854362Y-19055398D01*
X1006119Y-19266715D01*
X1051043Y-19329276D01*
X1204113Y-19542190D01*
X1350190Y-19744876D01*
X1487378Y-19934732D01*
X1613779Y-20109156D01*
X1727496Y-20265547D01*
X1826633Y-20401301D01*
X1909292Y-20513818D01*
X1973576Y-20600496D01*
X2017588Y-20658732D01*
X2039432Y-20685924D01*
X2041410Y-20687644D01*
X2044436Y-20667356D01*
X2047274Y-20608594D01*
X2049868Y-20515254D01*
X2052162Y-20391229D01*
X2054102Y-20240416D01*
X2055631Y-20066709D01*
X2056695Y-19874003D01*
X2057238Y-19666193D01*
X2057298Y-19569020D01*
X2057298Y-18449133D01*
X1040450Y-17038351D01*
X91079Y-15721185D01*
X23603Y-15627568D01*
X23603Y-15351316D01*
X23603Y-15075063D01*
X6670184Y-15074209D01*
X13316764Y-15073355D01*
X14616041Y-14014993D01*
X15915317Y-12956631D01*
X23688226Y-12956631D01*
X31461134Y-12956631D01*
X31461134Y-22934446D01*
G37*
G36*
X27083818Y-9106381D02*
G01*
X28028667Y-10170893D01*
X28028971Y-11426064D01*
X28029274Y-12681235D01*
X21933077Y-12681235D01*
X15836879Y-12681235D01*
X14562593Y-13740451D01*
X13288307Y-14799667D01*
X6613587Y-14799667D01*
X-61134Y-14799667D01*
X-61134Y-14041718D01*
X7311009Y-14041718D01*
X7538741Y-14033576D01*
X7654158Y-14027519D01*
X7736395Y-14018009D01*
X7794597Y-14003552D01*
X7833324Y-13985476D01*
X7911422Y-13914726D01*
X7967623Y-13811170D01*
X7999473Y-13679648D01*
X8002596Y-13651609D01*
X8003278Y-13510799D01*
X7978082Y-13395141D01*
X7928145Y-13309268D01*
X7915443Y-13296219D01*
X7914763Y-13295580D01*
X8201799Y-13295580D01*
X8203168Y-13467081D01*
X8207129Y-13602028D01*
X8214534Y-13706198D01*
X8226239Y-13785369D01*
X8243097Y-13845321D01*
X8265961Y-13891830D01*
X8295648Y-13930632D01*
X8376309Y-13991201D01*
X8478390Y-14027214D01*
X8588240Y-14036935D01*
X8692208Y-14018626D01*
X8753202Y-13988862D01*
X8814899Y-13936761D01*
X8869114Y-13874602D01*
X8872849Y-13869216D01*
X8888017Y-13845209D01*
X8899615Y-13820154D01*
X8908120Y-13788308D01*
X8914011Y-13743931D01*
X8917768Y-13681283D01*
X8919868Y-13594622D01*
X8920791Y-13478208D01*
X8921015Y-13326301D01*
X8921018Y-13291603D01*
X8920759Y-13130053D01*
X8919705Y-13004998D01*
X8917439Y-12910569D01*
X8913545Y-12840895D01*
X8907607Y-12790105D01*
X8899207Y-12752328D01*
X8887929Y-12721694D01*
X8879308Y-12703710D01*
X8812037Y-12614295D01*
X8721901Y-12554158D01*
X8647368Y-12532944D01*
X9131103Y-12532944D01*
X9137278Y-13177553D01*
X9139150Y-13360266D01*
X9141106Y-13505473D01*
X9143495Y-13618035D01*
X9146666Y-13702814D01*
X9150967Y-13764672D01*
X9156746Y-13808472D01*
X9164353Y-13839073D01*
X9174135Y-13861338D01*
X9186441Y-13880130D01*
X9187769Y-13881932D01*
X9272498Y-13966438D01*
X9373413Y-14019915D01*
X9481598Y-14040351D01*
X9588138Y-14025734D01*
X9663487Y-13989294D01*
X9723292Y-13936996D01*
X9774195Y-13873459D01*
X9777837Y-13867485D01*
X9790344Y-13843971D01*
X9800289Y-13817417D01*
X9808030Y-13782783D01*
X9813924Y-13735032D01*
X9818330Y-13669124D01*
X9821605Y-13580021D01*
X9824105Y-13462684D01*
X9826189Y-13312076D01*
X9827808Y-13163178D01*
X9832333Y-12721489D01*
X9916681Y-12721489D01*
X10038491Y-12727842D01*
X10160300Y-12734195D01*
X10165903Y-13385613D01*
X10171505Y-14037031D01*
X10277120Y-14037031D01*
X10382736Y-14037031D01*
X10382736Y-13781778D01*
X11484635Y-13781778D01*
X11502239Y-13846745D01*
X11519380Y-13871185D01*
X11532482Y-13882675D01*
X11551804Y-13891643D01*
X11582265Y-13898392D01*
X11628782Y-13903227D01*
X11696275Y-13906450D01*
X11789661Y-13908367D01*
X11913859Y-13909280D01*
X12073787Y-13909494D01*
X12139022Y-13909460D01*
X12314906Y-13909070D01*
X12453783Y-13908002D01*
X12561012Y-13905942D01*
X12641952Y-13902575D01*
X12701963Y-13897586D01*
X12746405Y-13890660D01*
X12780636Y-13881484D01*
X12809217Y-13870106D01*
X12910506Y-13803396D01*
X12988709Y-13710461D01*
X13029844Y-13617983D01*
X13038777Y-13564592D01*
X13045972Y-13481237D01*
X13050583Y-13380311D01*
X13051842Y-13296048D01*
X13051960Y-13052896D01*
X13227173Y-13227199D01*
X13317577Y-13313395D01*
X13387057Y-13369184D01*
X13441343Y-13397093D01*
X13486163Y-13399650D01*
X13527247Y-13379382D01*
X13542827Y-13366442D01*
X13571307Y-13319864D01*
X13581568Y-13266624D01*
X13577676Y-13240240D01*
X13563506Y-13209335D01*
X13535316Y-13169366D01*
X13489365Y-13115792D01*
X13421911Y-13044071D01*
X13329213Y-12949661D01*
X13278884Y-12899182D01*
X13172018Y-12793247D01*
X13089885Y-12714405D01*
X13028074Y-12658996D01*
X12982174Y-12623358D01*
X12947777Y-12603830D01*
X12920472Y-12596751D01*
X12914262Y-12596497D01*
X12888036Y-12601046D01*
X12855817Y-12617132D01*
X12813194Y-12648417D01*
X12755757Y-12698562D01*
X12679095Y-12771227D01*
X12578800Y-12870074D01*
X12549640Y-12899182D01*
X12443412Y-13006374D01*
X12364344Y-13088823D01*
X12308808Y-13150888D01*
X12273175Y-13196932D01*
X12253816Y-13231315D01*
X12247102Y-13258399D01*
X12246956Y-13262943D01*
X12263946Y-13333894D01*
X12308970Y-13383380D01*
X12371607Y-13401502D01*
X12407745Y-13391540D01*
X12457241Y-13359247D01*
X12524853Y-13301013D01*
X12601351Y-13227199D01*
X12776564Y-13052896D01*
X12776564Y-13304972D01*
X12775483Y-13418221D01*
X12771615Y-13496907D01*
X12764025Y-13548795D01*
X12751776Y-13581650D01*
X12741504Y-13595788D01*
X12728149Y-13607470D01*
X12708432Y-13616548D01*
X12677338Y-13623348D01*
X12629850Y-13628193D01*
X12560951Y-13631410D01*
X12465624Y-13633320D01*
X12338853Y-13634251D01*
X12175621Y-13634524D01*
X12142465Y-13634529D01*
X11968364Y-13634859D01*
X11831700Y-13636026D01*
X11727543Y-13638295D01*
X11650965Y-13641934D01*
X11597038Y-13647208D01*
X11560832Y-13654382D01*
X11537419Y-13663724D01*
X11531403Y-13667507D01*
X11494693Y-13716331D01*
X11484635Y-13781778D01*
X10382736Y-13781778D01*
X10382736Y-13380317D01*
X10382736Y-12723603D01*
X10499249Y-12723603D01*
X10615763Y-12723603D01*
X10615763Y-12628274D01*
X10615763Y-12532944D01*
X10266222Y-12532944D01*
X9916681Y-12532944D01*
X9916681Y-12627217D01*
X9916681Y-12721489D01*
X9832333Y-12721489D01*
X9833299Y-12627217D01*
X9834265Y-12532944D01*
X9727183Y-12532944D01*
X9620100Y-12532944D01*
X9620100Y-13134351D01*
X9619907Y-13311216D01*
X9619134Y-13450650D01*
X9617489Y-13557588D01*
X9614680Y-13636966D01*
X9610415Y-13693721D01*
X9604402Y-13732788D01*
X9596351Y-13759103D01*
X9585968Y-13777602D01*
X9581747Y-13783120D01*
X9526019Y-13821906D01*
X9458277Y-13827434D01*
X9393681Y-13798956D01*
X9386371Y-13792776D01*
X9374290Y-13779912D01*
X9364797Y-13762489D01*
X9357581Y-13735668D01*
X9352332Y-13694611D01*
X9348739Y-13634477D01*
X9346490Y-13550430D01*
X9345276Y-13437628D01*
X9344785Y-13291234D01*
X9344704Y-13144006D01*
X9344704Y-12532944D01*
X9237903Y-12532944D01*
X9131103Y-12532944D01*
X8647368Y-12532944D01*
X8617789Y-12524525D01*
X8508589Y-12526622D01*
X8403190Y-12561678D01*
X8315432Y-12625870D01*
X8279901Y-12665927D01*
X8252457Y-12710182D01*
X8232109Y-12764474D01*
X8217866Y-12834645D01*
X8208738Y-12926532D01*
X8203732Y-13045977D01*
X8201860Y-13198817D01*
X8201799Y-13295580D01*
X7914763Y-13295580D01*
X7862687Y-13246657D01*
X7913608Y-13199465D01*
X7969102Y-13120866D01*
X7999962Y-13015406D01*
X8003754Y-12892310D01*
X8001172Y-12867349D01*
X7975818Y-12750269D01*
X7930069Y-12661561D01*
X7859834Y-12598404D01*
X7761026Y-12557973D01*
X7629556Y-12537445D01*
X7517556Y-12533410D01*
X7311009Y-12532944D01*
X7311009Y-13287331D01*
X7311009Y-14041718D01*
X-61134Y-14041718D01*
X-61134Y-14039058D01*
X982301Y-14039058D01*
X1090434Y-14032748D01*
X1198566Y-14026439D01*
X1228010Y-13872853D01*
X1257454Y-13719266D01*
X1410760Y-13719266D01*
X1564065Y-13719266D01*
X1591243Y-13878149D01*
X1618421Y-14037031D01*
X1723815Y-14037031D01*
X1786030Y-14035439D01*
X1815688Y-14027427D01*
X1822570Y-14008142D01*
X1819881Y-13989366D01*
X1813170Y-13957869D01*
X1798376Y-13890200D01*
X1776642Y-13791540D01*
X1749115Y-13667067D01*
X1737202Y-13613345D01*
X1903617Y-13613345D01*
X1913946Y-13720844D01*
X1939870Y-13831653D01*
X1997455Y-13921208D01*
X2078267Y-13989366D01*
X2163939Y-14025997D01*
X2268509Y-14039744D01*
X2276531Y-14039058D01*
X6363119Y-14039058D01*
X6471251Y-14032748D01*
X6579384Y-14026439D01*
X6608827Y-13872853D01*
X6638271Y-13719266D01*
X6791577Y-13719266D01*
X6944882Y-13719266D01*
X6972060Y-13878149D01*
X6999238Y-14037031D01*
X7104632Y-14037031D01*
X7166848Y-14035439D01*
X7196505Y-14027427D01*
X7203387Y-14008142D01*
X7200698Y-13989366D01*
X7193988Y-13957869D01*
X7179193Y-13890200D01*
X7157460Y-13791540D01*
X7129932Y-13667067D01*
X7097756Y-13521962D01*
X7062075Y-13361405D01*
X7045585Y-13287331D01*
X7034453Y-13237323D01*
X6877537Y-12532944D01*
X6789227Y-12532944D01*
X6700917Y-12532944D01*
X6664751Y-12697123D01*
X6650426Y-12761666D01*
X6628407Y-12860242D01*
X6600331Y-12985558D01*
X6567833Y-13130319D01*
X6532550Y-13287230D01*
X6496119Y-13448996D01*
X6495852Y-13450180D01*
X6363119Y-14039058D01*
X2276531Y-14039058D01*
X2300234Y-14037031D01*
X2798749Y-14037031D01*
X2904671Y-14037031D01*
X3010592Y-14037031D01*
X3010592Y-13806672D01*
X3011500Y-13701420D01*
X3015497Y-13627261D01*
X3024492Y-13572939D01*
X3040395Y-13527193D01*
X3065115Y-13478767D01*
X3066685Y-13475952D01*
X3102721Y-13418230D01*
X3126686Y-13397210D01*
X3139165Y-13404875D01*
X3151929Y-13434306D01*
X3176139Y-13495802D01*
X3208814Y-13581594D01*
X3246974Y-13683908D01*
X3265994Y-13735595D01*
X3376435Y-14037031D01*
X3487917Y-14037031D01*
X3599399Y-14037031D01*
X3431238Y-13608049D01*
X3381654Y-13480453D01*
X3337611Y-13365007D01*
X3301415Y-13267929D01*
X3275372Y-13195436D01*
X3261788Y-13153748D01*
X3260374Y-13147290D01*
X3268232Y-13117874D01*
X3291677Y-13057941D01*
X3327542Y-12974964D01*
X3372654Y-12876414D01*
X3397403Y-12824229D01*
X3537137Y-12532944D01*
X4090993Y-12532944D01*
X4090993Y-13284988D01*
X4090993Y-14037031D01*
X4196914Y-14037031D01*
X4302836Y-14037031D01*
X4305061Y-13576272D01*
X4307286Y-13115513D01*
X4413176Y-13439770D01*
X4452959Y-13560674D01*
X4482693Y-13646904D01*
X4505241Y-13704134D01*
X4523468Y-13738044D01*
X4540237Y-13754308D01*
X4558414Y-13758605D01*
X4573496Y-13757534D01*
X4595045Y-13752179D01*
X4613943Y-13737854D01*
X4633150Y-13708637D01*
X4655623Y-13658604D01*
X4684323Y-13581833D01*
X4722208Y-13472400D01*
X4735481Y-13433278D01*
X4843036Y-13115513D01*
X4848745Y-13576272D01*
X4854454Y-14037031D01*
X4959963Y-14037031D01*
X5065471Y-14037031D01*
X5277315Y-14037031D01*
X5595079Y-14037031D01*
X5912844Y-14037031D01*
X5912844Y-13931110D01*
X5912844Y-13825188D01*
X5701001Y-13825188D01*
X5489158Y-13825188D01*
X5489158Y-13602753D01*
X5489158Y-13380317D01*
X5669224Y-13380317D01*
X5849291Y-13380317D01*
X5849291Y-13274396D01*
X5849291Y-13168474D01*
X5669224Y-13168474D01*
X5489158Y-13168474D01*
X5489158Y-12946039D01*
X5489158Y-12723603D01*
X5701001Y-12723603D01*
X5912844Y-12723603D01*
X5912844Y-12628274D01*
X5912844Y-12532944D01*
X5595079Y-12532944D01*
X5277315Y-12532944D01*
X5277315Y-13284988D01*
X5277315Y-14037031D01*
X5065471Y-14037031D01*
X5065471Y-13284988D01*
X5065471Y-13283881D01*
X5065471Y-12530730D01*
X4956832Y-12537133D01*
X4848192Y-12543537D01*
X4721999Y-12914262D01*
X4681115Y-13032770D01*
X4643964Y-13137468D01*
X4612989Y-13221704D01*
X4590634Y-13278828D01*
X4579524Y-13302015D01*
X4568039Y-13288307D01*
X4545533Y-13240125D01*
X4514319Y-13163212D01*
X4476710Y-13063309D01*
X4435021Y-12946159D01*
X4428056Y-12925993D01*
X4292868Y-12532944D01*
X4191930Y-12532944D01*
X4090993Y-12532944D01*
X3537137Y-12532944D01*
X3435360Y-12532944D01*
X3333583Y-12532944D01*
X3177383Y-12872117D01*
X3021184Y-13211289D01*
X3015364Y-12872117D01*
X3009543Y-12532944D01*
X2904146Y-12532944D01*
X2798749Y-12532944D01*
X2798749Y-13284988D01*
X2798749Y-14037031D01*
X2300234Y-14037031D01*
X2375227Y-14030618D01*
X2467340Y-13998632D01*
X2483148Y-13989087D01*
X2554973Y-13925018D01*
X2603079Y-13841094D01*
X2629990Y-13730835D01*
X2638235Y-13591298D01*
X2632506Y-13465656D01*
X2612269Y-13372656D01*
X2573235Y-13303823D01*
X2551218Y-13284988D01*
X2511115Y-13250681D01*
X2448787Y-13216954D01*
X2336166Y-13163637D01*
X2255993Y-13123680D01*
X2202138Y-13092931D01*
X2168469Y-13067240D01*
X2148856Y-13042454D01*
X2137166Y-13014421D01*
X2134017Y-13003803D01*
X2126173Y-12925379D01*
X2140746Y-12845504D01*
X2173195Y-12778765D01*
X2215760Y-12741124D01*
X2286821Y-12728943D01*
X2353086Y-12751951D01*
X2405536Y-12803184D01*
X2435146Y-12875673D01*
X2438616Y-12913210D01*
X2443896Y-12939207D01*
X2466727Y-12952175D01*
X2517599Y-12956414D01*
X2544537Y-12956631D01*
X2607285Y-12955095D01*
X2638565Y-12946493D01*
X2649266Y-12924829D01*
X2650341Y-12898374D01*
X2631536Y-12777167D01*
X2580174Y-12674897D01*
X2503042Y-12595408D01*
X2406929Y-12542545D01*
X2298622Y-12520154D01*
X2184911Y-12532078D01*
X2081835Y-12576371D01*
X2009368Y-12643578D01*
X1958058Y-12737666D01*
X1928724Y-12848351D01*
X1922185Y-12965346D01*
X1939257Y-13078365D01*
X1980761Y-13177124D01*
X2029319Y-13236470D01*
X2066840Y-13261913D01*
X2131146Y-13297494D01*
X2210103Y-13336616D01*
X2233127Y-13347280D01*
X2329434Y-13395779D01*
X2391242Y-13442216D01*
X2424813Y-13496102D01*
X2436405Y-13566948D01*
X2433346Y-13651493D01*
X2417902Y-13741925D01*
X2385563Y-13797863D01*
X2330967Y-13825585D01*
X2279549Y-13831488D01*
X2201237Y-13815677D01*
X2146504Y-13767423D01*
X2121674Y-13692982D01*
X2120851Y-13674551D01*
X2118438Y-13638640D01*
X2104008Y-13620522D01*
X2066774Y-13614118D01*
X2012234Y-13613345D01*
X1903617Y-13613345D01*
X1737202Y-13613345D01*
X1716938Y-13521962D01*
X1681258Y-13361405D01*
X1653636Y-13237323D01*
X1496720Y-12532944D01*
X1408410Y-12532944D01*
X1320100Y-12532944D01*
X1283934Y-12697123D01*
X1269608Y-12761666D01*
X1247589Y-12860242D01*
X1219513Y-12985558D01*
X1187016Y-13130319D01*
X1151733Y-13287230D01*
X1115301Y-13448996D01*
X1115035Y-13450180D01*
X982301Y-14039058D01*
X-61134Y-14039058D01*
X-61134Y-11420768D01*
X-61134Y-10802237D01*
X976898Y-10802237D01*
X977213Y-10953968D01*
X980879Y-11070283D01*
X991973Y-11158130D01*
X1014571Y-11224456D01*
X1052753Y-11276209D01*
X1110595Y-11320335D01*
X1192175Y-11363782D01*
X1301571Y-11413497D01*
X1347623Y-11433857D01*
X1488902Y-11493225D01*
X1601524Y-11533819D01*
X1682283Y-11554543D01*
X1707614Y-11557097D01*
X1764524Y-11549928D01*
X1846258Y-11525994D01*
X1956992Y-11483882D01*
X2082961Y-11430128D01*
X2373714Y-11301789D01*
X2668810Y-11430128D01*
X2817225Y-11491929D01*
X2930860Y-11532997D01*
X3011530Y-11553942D01*
X3045506Y-11557097D01*
X3104917Y-11546554D01*
X3195986Y-11517595D01*
X3313192Y-11472126D01*
X3402502Y-11433857D01*
X3455618Y-11410175D01*
X5171393Y-11410175D01*
X5183914Y-11451662D01*
X5214152Y-11501177D01*
X5215299Y-11502648D01*
X5233555Y-11524431D01*
X5253187Y-11539651D01*
X5281563Y-11549483D01*
X5326053Y-11555106D01*
X5394024Y-11557695D01*
X5492845Y-11558428D01*
X5564840Y-11558466D01*
X5686091Y-11557978D01*
X5772351Y-11555916D01*
X5830993Y-11551383D01*
X5869390Y-11543480D01*
X5894914Y-11531310D01*
X5912844Y-11516097D01*
X5950928Y-11453323D01*
X5953962Y-11386226D01*
X5926661Y-11325099D01*
X5873744Y-11280233D01*
X5799926Y-11261920D01*
X5796330Y-11261885D01*
X5722185Y-11261885D01*
X5722185Y-11018265D01*
X6114095Y-11018265D01*
X6115818Y-11164862D01*
X6122297Y-11275996D01*
X6135502Y-11358482D01*
X6157400Y-11419134D01*
X6189959Y-11464766D01*
X6235148Y-11502194D01*
X6258118Y-11516955D01*
X6294249Y-11535171D01*
X6337620Y-11547238D01*
X6397382Y-11554329D01*
X6482685Y-11557620D01*
X6580150Y-11558307D01*
X6693804Y-11557290D01*
X6774272Y-11553454D01*
X6830705Y-11545624D01*
X6872255Y-11532626D01*
X6902183Y-11516955D01*
X6942348Y-11488596D01*
X12345080Y-11488596D01*
X12355212Y-11526213D01*
X12397660Y-11547117D01*
X12475054Y-11556217D01*
X12590027Y-11558418D01*
X12660378Y-11558466D01*
X12777073Y-11557752D01*
X12858048Y-11555108D01*
X12909938Y-11549778D01*
X12939374Y-11541004D01*
X12952990Y-11528032D01*
X12954364Y-11524957D01*
X12959275Y-11491758D01*
X12963320Y-11425558D01*
X12966101Y-11335720D01*
X12967217Y-11231608D01*
X12967223Y-11223743D01*
X12967223Y-10956039D01*
X13089033Y-11076249D01*
X13174278Y-11154493D01*
X13250866Y-11207539D01*
X13330912Y-11240007D01*
X13426529Y-11256516D01*
X13549833Y-11261684D01*
X13575592Y-11261767D01*
X13703889Y-11259450D01*
X13800462Y-11250209D01*
X13875829Y-11230360D01*
X13940511Y-11196215D01*
X14005026Y-11144089D01*
X14057829Y-11092801D01*
X14117071Y-11034716D01*
X14165532Y-10990492D01*
X14195329Y-10967202D01*
X14199948Y-10965305D01*
X14206133Y-10985214D01*
X14212086Y-11039842D01*
X14217233Y-11121540D01*
X14221001Y-11222662D01*
X14221796Y-11256589D01*
X14227690Y-11547874D01*
X14523980Y-11547874D01*
X14654462Y-11547238D01*
X14745874Y-11542433D01*
X14801517Y-11529113D01*
X14824688Y-11502933D01*
X14818689Y-11459546D01*
X14786817Y-11394606D01*
X14732373Y-11303767D01*
X14722049Y-11286964D01*
X14664339Y-11193048D01*
X16082930Y-11193048D01*
X16088670Y-11297031D01*
X16125617Y-11396935D01*
X16190507Y-11481093D01*
X16227445Y-11510379D01*
X16305909Y-11543924D01*
X16401601Y-11558803D01*
X16495364Y-11553573D01*
X16554062Y-11535001D01*
X16582997Y-11513225D01*
X16636339Y-11466386D01*
X16708665Y-11399506D01*
X16794554Y-11317612D01*
X16888584Y-11225726D01*
X16899744Y-11214675D01*
X17199155Y-10917815D01*
X17191640Y-10746753D01*
X17184125Y-10575690D01*
X17040912Y-10431371D01*
X16897699Y-10287052D01*
X16519855Y-10663251D01*
X16414434Y-10769264D01*
X16317887Y-10868346D01*
X16234714Y-10955718D01*
X16169417Y-11026601D01*
X16126495Y-11076216D01*
X16111665Y-11096655D01*
X16082930Y-11193048D01*
X14664339Y-11193048D01*
X14609008Y-11103003D01*
X14598415Y-10619266D01*
X14587823Y-10135529D01*
X14518640Y-10073770D01*
X14449457Y-10012010D01*
X13597122Y-10012089D01*
X13383945Y-10012202D01*
X13208967Y-10012620D01*
X13068017Y-10013532D01*
X12956925Y-10015124D01*
X12871520Y-10017583D01*
X12807633Y-10021097D01*
X12761094Y-10025852D01*
X12727732Y-10032036D01*
X12703377Y-10039835D01*
X12683860Y-10049437D01*
X12677238Y-10053356D01*
X12642500Y-10079276D01*
X12615606Y-10113045D01*
X12595593Y-10159982D01*
X12581497Y-10225407D01*
X12572354Y-10314640D01*
X12567199Y-10432999D01*
X12565070Y-10585805D01*
X12564839Y-10673647D01*
X12564721Y-11091664D01*
X12482247Y-11226411D01*
X12411229Y-11343602D01*
X12364629Y-11429362D01*
X12345080Y-11488596D01*
X6942348Y-11488596D01*
X6953201Y-11480933D01*
X6990771Y-11439539D01*
X7016863Y-11385959D01*
X7033443Y-11313378D01*
X7042479Y-11214982D01*
X7045941Y-11083957D01*
X7046205Y-11018265D01*
X7045746Y-10893916D01*
X7043718Y-10803911D01*
X7039146Y-10740227D01*
X7031056Y-10694845D01*
X7018473Y-10659743D01*
X7000422Y-10626900D01*
X6998207Y-10623315D01*
X6953455Y-10564518D01*
X6899181Y-10523318D01*
X6827563Y-10496999D01*
X6730776Y-10482841D01*
X6600998Y-10478126D01*
X6580150Y-10478065D01*
X6445227Y-10481694D01*
X6344370Y-10494393D01*
X6269757Y-10518881D01*
X6213564Y-10557874D01*
X6167967Y-10614092D01*
X6162094Y-10623315D01*
X6143422Y-10656382D01*
X6130320Y-10690879D01*
X6121811Y-10734827D01*
X6116921Y-10796248D01*
X6114675Y-10883163D01*
X6114099Y-11003592D01*
X6114095Y-11018265D01*
X5722185Y-11018265D01*
X5722185Y-10925793D01*
X5721767Y-10797769D01*
X5719971Y-10704872D01*
X5715987Y-10639862D01*
X5709004Y-10595500D01*
X5698210Y-10564548D01*
X5682795Y-10539766D01*
X5678279Y-10533883D01*
X5643088Y-10498873D01*
X5601402Y-10482490D01*
X5544162Y-10484362D01*
X5462310Y-10504116D01*
X5403238Y-10522558D01*
X5298522Y-10566398D01*
X5221915Y-10618755D01*
X5178859Y-10675243D01*
X5171393Y-10709417D01*
X5190400Y-10772775D01*
X5238780Y-10825744D01*
X5303575Y-10856210D01*
X5331813Y-10859383D01*
X5404420Y-10859383D01*
X5404420Y-11060634D01*
X5404420Y-11261885D01*
X5331813Y-11261885D01*
X5264671Y-11279418D01*
X5208051Y-11323943D01*
X5175056Y-11383349D01*
X5171393Y-11410175D01*
X3455618Y-11410175D01*
X3522697Y-11380268D01*
X3613637Y-11335401D01*
X3679398Y-11292308D01*
X3724058Y-11244043D01*
X3751695Y-11183658D01*
X3766386Y-11104205D01*
X3772210Y-10998739D01*
X3773243Y-10860311D01*
X3773228Y-10802237D01*
X3772603Y-10709417D01*
X3772195Y-10648796D01*
X3768000Y-10531606D01*
X3759004Y-10444574D01*
X3749117Y-10404251D01*
X8603286Y-10404251D01*
X8603561Y-10598505D01*
X8605071Y-10755106D01*
X8608812Y-10878770D01*
X8615779Y-10974213D01*
X8626966Y-11046149D01*
X8643368Y-11099295D01*
X8665980Y-11138366D01*
X8695797Y-11168076D01*
X8733814Y-11193142D01*
X8774295Y-11214823D01*
X8868057Y-11263089D01*
X9878079Y-11257191D01*
X10111190Y-11255778D01*
X10305685Y-11254386D01*
X10465318Y-11252839D01*
X10593839Y-11250965D01*
X10695002Y-11248590D01*
X10772560Y-11245538D01*
X10830264Y-11241636D01*
X10871867Y-11236710D01*
X10901122Y-11230586D01*
X10921782Y-11223089D01*
X10937598Y-11214046D01*
X10946578Y-11207615D01*
X11003129Y-11157165D01*
X11048733Y-11105483D01*
X11061421Y-11086511D01*
X11071472Y-11064088D01*
X11079257Y-11033213D01*
X11085153Y-10988885D01*
X11089532Y-10926104D01*
X11092768Y-10839868D01*
X11095236Y-10725176D01*
X11097309Y-10577028D01*
X11098897Y-10434640D01*
X11100624Y-10256066D01*
X11101412Y-10114549D01*
X11100996Y-10004783D01*
X11099108Y-9921462D01*
X11095480Y-9859280D01*
X11093444Y-9842536D01*
X12961779Y-9842536D01*
X13592511Y-9842536D01*
X14223243Y-9842536D01*
X14210867Y-9694918D01*
X14178425Y-9522024D01*
X14116548Y-9379707D01*
X16081318Y-9379707D01*
X16093750Y-9411744D01*
X16127546Y-9469506D01*
X16177454Y-9545750D01*
X16238221Y-9633237D01*
X16304596Y-9724724D01*
X16371328Y-9812971D01*
X16433163Y-9890735D01*
X16484850Y-9950777D01*
X16520709Y-9985530D01*
X16561139Y-9999886D01*
X16631584Y-10009264D01*
X16705326Y-10012010D01*
X16855181Y-10012010D01*
X17113673Y-10271518D01*
X17372165Y-10531026D01*
X17349018Y-10621390D01*
X17336729Y-10702878D01*
X17346595Y-10784820D01*
X17353548Y-10812049D01*
X17366532Y-10849754D01*
X17386809Y-10888681D01*
X17418444Y-10933793D01*
X17465505Y-10990054D01*
X17532057Y-11062426D01*
X17622166Y-11155872D01*
X17700454Y-11235487D01*
X17818862Y-11355175D01*
X17912522Y-11446395D01*
X17987052Y-11510225D01*
X18048071Y-11547741D01*
X18101198Y-11560022D01*
X18152051Y-11548144D01*
X18206250Y-11513187D01*
X18269412Y-11456226D01*
X18347157Y-11378340D01*
X18362807Y-11362511D01*
X18435923Y-11286621D01*
X18497089Y-11219273D01*
X18536776Y-11171615D01*
X19816961Y-11171615D01*
X19830798Y-11283418D01*
X19875623Y-11386918D01*
X19950712Y-11473897D01*
X20026318Y-11523280D01*
X20110480Y-11548671D01*
X20212532Y-11557150D01*
X20311170Y-11547898D01*
X20353875Y-11535870D01*
X20444811Y-11480602D01*
X20520164Y-11395515D01*
X20572050Y-11292453D01*
X20592584Y-11183263D01*
X20592648Y-11177148D01*
X20574404Y-11072624D01*
X20525171Y-10968523D01*
X20453197Y-10881251D01*
X20436937Y-10867370D01*
X20360552Y-10806422D01*
X20360552Y-10319183D01*
X20360552Y-9831944D01*
X20436937Y-9770996D01*
X20522995Y-9677694D01*
X20574250Y-9567264D01*
X20575458Y-9557262D01*
X20750279Y-9557262D01*
X20755499Y-9578012D01*
X20777390Y-9607844D01*
X20824307Y-9656697D01*
X20889142Y-9718383D01*
X20964785Y-9786716D01*
X21044124Y-9855507D01*
X21120051Y-9918570D01*
X21185455Y-9969718D01*
X21233226Y-10002762D01*
X21254222Y-10012010D01*
X21313484Y-9992980D01*
X21354743Y-9938671D01*
X21375445Y-9853259D01*
X21377398Y-9810759D01*
X21377398Y-9694245D01*
X21446577Y-9694245D01*
X21541633Y-9713017D01*
X21633689Y-9763503D01*
X21707156Y-9836966D01*
X21711051Y-9842525D01*
X21726879Y-9867541D01*
X21738753Y-9893985D01*
X21747240Y-9928036D01*
X21752907Y-9975873D01*
X21756320Y-10043673D01*
X21758047Y-10137615D01*
X21758654Y-10263878D01*
X21758716Y-10362170D01*
X21758716Y-10811986D01*
X21682265Y-10870298D01*
X21597437Y-10957751D01*
X21547370Y-11058426D01*
X21529768Y-11165420D01*
X21542337Y-11271829D01*
X21582783Y-11370750D01*
X21648812Y-11455279D01*
X21738129Y-11518513D01*
X21848440Y-11553549D01*
X21910923Y-11558335D01*
X21985731Y-11553475D01*
X22053084Y-11541155D01*
X22069805Y-11535870D01*
X22160741Y-11480602D01*
X22236094Y-11395515D01*
X22287980Y-11292453D01*
X22308514Y-11183263D01*
X22308578Y-11177148D01*
X22290301Y-11072552D01*
X22240836Y-10968120D01*
X22168225Y-10880010D01*
X22154868Y-10868401D01*
X22079494Y-10806272D01*
X22072691Y-10329700D01*
X22072520Y-10319183D01*
X23559383Y-10319183D01*
X23568926Y-10376694D01*
X23601673Y-10412737D01*
X23663804Y-10431115D01*
X23748649Y-10435697D01*
X23855963Y-10435697D01*
X23855963Y-10573395D01*
X23855963Y-10711093D01*
X23748649Y-10711093D01*
X23655228Y-10716967D01*
X23596679Y-10737127D01*
X23566826Y-10775375D01*
X23559383Y-10827607D01*
X23568998Y-10885261D01*
X23601949Y-10921343D01*
X23664392Y-10939664D01*
X23747653Y-10944120D01*
X23811038Y-10945751D01*
X23845242Y-10955973D01*
X23863446Y-10982781D01*
X23875358Y-11021573D01*
X23921576Y-11117187D01*
X23996837Y-11194103D01*
X24089846Y-11240905D01*
X24093278Y-11241855D01*
X24140837Y-11256714D01*
X24164587Y-11276562D01*
X24172795Y-11314569D01*
X24173728Y-11370016D01*
X24179665Y-11463224D01*
X24200015Y-11521572D01*
X24238587Y-11551222D01*
X24290242Y-11558466D01*
X24354104Y-11547001D01*
X24384826Y-11517490D01*
X24397742Y-11472631D01*
X24405622Y-11405309D01*
X24406756Y-11369199D01*
X24406756Y-11261885D01*
X24544454Y-11261885D01*
X24682152Y-11261885D01*
X24682152Y-11369199D01*
X24688027Y-11462621D01*
X24708186Y-11521169D01*
X24746434Y-11551023D01*
X24798666Y-11558466D01*
X24856177Y-11548923D01*
X24892219Y-11516175D01*
X24910598Y-11454044D01*
X24915179Y-11369199D01*
X24915179Y-11261885D01*
X25052877Y-11261885D01*
X25190576Y-11261885D01*
X25190576Y-11369199D01*
X25196450Y-11462621D01*
X25216610Y-11521169D01*
X25254858Y-11551023D01*
X25307089Y-11558466D01*
X25364717Y-11548863D01*
X25400793Y-11515949D01*
X25419124Y-11453563D01*
X25423603Y-11370016D01*
X25425154Y-11306642D01*
X25435316Y-11272466D01*
X25462357Y-11254318D01*
X25504053Y-11241855D01*
X25597478Y-11196313D01*
X25673550Y-11120255D01*
X25720973Y-11025103D01*
X25721974Y-11021573D01*
X25736871Y-10975725D01*
X25757215Y-10952864D01*
X25796187Y-10944995D01*
X25849678Y-10944120D01*
X25942839Y-10938170D01*
X26001143Y-10917778D01*
X26030748Y-10879134D01*
X26037948Y-10827607D01*
X26028406Y-10770096D01*
X25995658Y-10734053D01*
X25933527Y-10715675D01*
X25848682Y-10711093D01*
X25741368Y-10711093D01*
X25741368Y-10573395D01*
X25741368Y-10435697D01*
X25848682Y-10435697D01*
X25942104Y-10429822D01*
X26000652Y-10409662D01*
X26030506Y-10371414D01*
X26037948Y-10319183D01*
X26028406Y-10261672D01*
X25995658Y-10225629D01*
X25933527Y-10207251D01*
X25848682Y-10202669D01*
X25741368Y-10202669D01*
X25741368Y-10064971D01*
X25741368Y-9927273D01*
X25848682Y-9927273D01*
X25943912Y-9920668D01*
X26003632Y-9898985D01*
X26032884Y-9859424D01*
X26037948Y-9822119D01*
X26025559Y-9756918D01*
X25985446Y-9716220D01*
X25913191Y-9696896D01*
X25857364Y-9694245D01*
X25791278Y-9692946D01*
X25755014Y-9684261D01*
X25736024Y-9661013D01*
X25721974Y-9616792D01*
X25675756Y-9521179D01*
X25600494Y-9444262D01*
X25507485Y-9397461D01*
X25504053Y-9396511D01*
X25423603Y-9374848D01*
X25423603Y-9260664D01*
X25414854Y-9168538D01*
X25386516Y-9111022D01*
X25335453Y-9083682D01*
X25295729Y-9079900D01*
X25242821Y-9091789D01*
X25209641Y-9130815D01*
X25193389Y-9202021D01*
X25190576Y-9269166D01*
X25190576Y-9376481D01*
X25052877Y-9376481D01*
X24915179Y-9376481D01*
X24915179Y-9261480D01*
X24905889Y-9167420D01*
X24876703Y-9108674D01*
X24825645Y-9082166D01*
X24798666Y-9079900D01*
X24738310Y-9094378D01*
X24700615Y-9139864D01*
X24683606Y-9219434D01*
X24682152Y-9261480D01*
X24682152Y-9376481D01*
X24544454Y-9376481D01*
X24406756Y-9376481D01*
X24406756Y-9269166D01*
X24400151Y-9173936D01*
X24378468Y-9114216D01*
X24338907Y-9084964D01*
X24301602Y-9079900D01*
X24236431Y-9092268D01*
X24195744Y-9132326D01*
X24176404Y-9204510D01*
X24173728Y-9260664D01*
X24173728Y-9374848D01*
X24093278Y-9396511D01*
X23999853Y-9442053D01*
X23923781Y-9518110D01*
X23876358Y-9613263D01*
X23875358Y-9616792D01*
X23861115Y-9661446D01*
X23841978Y-9684455D01*
X23805401Y-9692995D01*
X23739967Y-9694245D01*
X23647889Y-9703018D01*
X23590415Y-9731423D01*
X23563127Y-9782588D01*
X23559383Y-9822119D01*
X23571271Y-9875028D01*
X23610298Y-9908208D01*
X23681504Y-9924459D01*
X23748649Y-9927273D01*
X23855963Y-9927273D01*
X23855963Y-10064971D01*
X23855963Y-10202669D01*
X23748649Y-10202669D01*
X23655228Y-10208544D01*
X23596679Y-10228703D01*
X23566826Y-10266952D01*
X23559383Y-10319183D01*
X22072520Y-10319183D01*
X22070142Y-10172736D01*
X22067171Y-10051837D01*
X22063214Y-9960696D01*
X22057706Y-9893011D01*
X22050080Y-9842475D01*
X22044792Y-9822119D01*
X22039770Y-9802785D01*
X22026211Y-9767636D01*
X22021281Y-9756722D01*
X21934682Y-9616607D01*
X21819852Y-9507575D01*
X21678854Y-9431089D01*
X21513753Y-9388611D01*
X21499208Y-9386681D01*
X21377398Y-9371599D01*
X21377398Y-9264490D01*
X21368212Y-9173833D01*
X21342338Y-9118641D01*
X21307397Y-9089524D01*
X21268560Y-9080397D01*
X21220658Y-9093514D01*
X21158526Y-9131129D01*
X21076994Y-9195497D01*
X20988519Y-9272982D01*
X20889977Y-9363307D01*
X20820650Y-9431966D01*
X20776768Y-9483891D01*
X20754567Y-9524013D01*
X20750279Y-9557262D01*
X20575458Y-9557262D01*
X20588666Y-9447891D01*
X20564205Y-9327761D01*
X20553539Y-9302336D01*
X20486254Y-9195305D01*
X20398263Y-9124218D01*
X20286376Y-9087097D01*
X20194993Y-9080249D01*
X20073600Y-9098707D01*
X19972947Y-9148758D01*
X19895448Y-9223794D01*
X19843518Y-9317207D01*
X19819570Y-9422390D01*
X19826018Y-9532735D01*
X19865277Y-9641634D01*
X19939760Y-9742480D01*
X19949528Y-9752146D01*
X20042786Y-9841823D01*
X20042786Y-10326904D01*
X20042786Y-10811986D01*
X19968618Y-10868556D01*
X19885147Y-10955967D01*
X19834835Y-11059725D01*
X19816961Y-11171615D01*
X18536776Y-11171615D01*
X18540483Y-11167163D01*
X18560280Y-11136987D01*
X18560853Y-11134779D01*
X18562229Y-11098763D01*
X18554405Y-11062715D01*
X18533838Y-11021788D01*
X18496983Y-10971136D01*
X18440298Y-10905911D01*
X18360239Y-10821267D01*
X18253261Y-10712357D01*
X18248457Y-10707514D01*
X18124947Y-10584644D01*
X18024888Y-10490071D01*
X17943204Y-10420768D01*
X17874817Y-10373706D01*
X17814653Y-10345857D01*
X17757634Y-10334195D01*
X17698683Y-10335689D01*
X17641437Y-10345429D01*
X17532444Y-10368538D01*
X17273725Y-10111938D01*
X17015006Y-9855338D01*
X17011709Y-9762991D01*
X17157094Y-9762991D01*
X17365556Y-9972238D01*
X17574018Y-10181485D01*
X17701521Y-10181692D01*
X17842619Y-10200129D01*
X17974836Y-10251490D01*
X18085498Y-10330537D01*
X18102123Y-10347273D01*
X18143132Y-10387383D01*
X18172573Y-10400038D01*
X18206298Y-10390085D01*
X18219898Y-10383272D01*
X18266758Y-10351721D01*
X18326161Y-10302221D01*
X18363865Y-10266597D01*
X18422706Y-10198971D01*
X18475290Y-10123996D01*
X18495722Y-10087412D01*
X18532108Y-9992972D01*
X18555727Y-9891824D01*
X18566651Y-9792028D01*
X18564955Y-9701641D01*
X18550710Y-9628723D01*
X18523991Y-9581333D01*
X18491009Y-9567140D01*
X18468424Y-9581185D01*
X18422563Y-9619452D01*
X18360045Y-9676137D01*
X18287486Y-9745437D01*
X18285677Y-9747206D01*
X18101664Y-9927273D01*
X17932508Y-9927273D01*
X17837552Y-9923977D01*
X17769737Y-9914768D01*
X17737932Y-9901852D01*
X17724150Y-9866171D01*
X17715335Y-9796270D01*
X17712511Y-9708465D01*
X17712511Y-9540499D01*
X17897234Y-9351727D01*
X17984408Y-9259938D01*
X18039854Y-9192459D01*
X18063440Y-9145370D01*
X18055033Y-9114752D01*
X18014500Y-9096685D01*
X17941709Y-9087249D01*
X17888169Y-9084331D01*
X17718937Y-9096945D01*
X17564818Y-9147238D01*
X17429787Y-9232012D01*
X17317816Y-9348068D01*
X17232878Y-9492209D01*
X17180464Y-9654017D01*
X17157094Y-9762991D01*
X17011709Y-9762991D01*
X17008921Y-9684925D01*
X17002836Y-9514513D01*
X16720443Y-9297207D01*
X16591384Y-9200537D01*
X16492472Y-9132413D01*
X16422981Y-9092366D01*
X16383400Y-9079900D01*
X16337159Y-9095825D01*
X16276704Y-9137334D01*
X16211506Y-9195027D01*
X16151037Y-9259502D01*
X16104769Y-9321361D01*
X16082172Y-9371204D01*
X16081318Y-9379707D01*
X14116548Y-9379707D01*
X14113898Y-9373613D01*
X14020153Y-9252451D01*
X13900055Y-9161305D01*
X13756471Y-9102939D01*
X13592267Y-9080121D01*
X13573565Y-9079900D01*
X13480851Y-9085227D01*
X13400682Y-9105002D01*
X13310404Y-9144682D01*
X13175992Y-9230213D01*
X13076898Y-9336310D01*
X13011046Y-9466248D01*
X12976356Y-9623300D01*
X12971583Y-9678357D01*
X12961779Y-9842536D01*
X11093444Y-9842536D01*
X11089845Y-9812931D01*
X11081937Y-9777109D01*
X11071487Y-9746508D01*
X11063266Y-9727037D01*
X11002023Y-9633798D01*
X10917829Y-9572048D01*
X10817427Y-9546464D01*
X10802282Y-9546034D01*
X10744861Y-9539690D01*
X10711326Y-9514475D01*
X10696360Y-9488318D01*
X10659115Y-9435780D01*
X10602558Y-9401498D01*
X10519451Y-9382745D01*
X10402555Y-9376800D01*
X10400003Y-9376793D01*
X10282192Y-9380734D01*
X10199147Y-9394717D01*
X10143953Y-9421185D01*
X10109695Y-9462585D01*
X10100778Y-9482607D01*
X10076866Y-9545955D01*
X9848887Y-9545955D01*
X9748356Y-9545626D01*
X9682292Y-9543467D01*
X9642792Y-9537721D01*
X9621956Y-9526630D01*
X9611880Y-9508437D01*
X9607429Y-9492255D01*
X9579482Y-9440274D01*
X9523390Y-9404665D01*
X9435100Y-9383923D01*
X9310558Y-9376542D01*
X9295652Y-9376481D01*
X9173298Y-9383221D01*
X9086040Y-9404948D01*
X9028563Y-9443916D01*
X8995553Y-9502384D01*
X8994987Y-9504139D01*
X8974001Y-9533527D01*
X8928525Y-9545111D01*
X8901539Y-9545955D01*
X8806345Y-9565543D01*
X8718446Y-9618684D01*
X8650811Y-9696942D01*
X8640358Y-9715852D01*
X8629487Y-9741530D01*
X8620942Y-9773666D01*
X8614453Y-9817322D01*
X8609746Y-9877560D01*
X8606549Y-9959442D01*
X8604588Y-10068031D01*
X8603592Y-10208388D01*
X8603289Y-10385575D01*
X8603286Y-10404251D01*
X3749117Y-10404251D01*
X3743565Y-10381610D01*
X3720041Y-10336623D01*
X3686790Y-10303521D01*
X3642172Y-10276213D01*
X3629797Y-10269947D01*
X3576483Y-10246100D01*
X3495812Y-10212984D01*
X3400302Y-10175648D01*
X3333653Y-10150567D01*
X3116514Y-10070246D01*
X3116514Y-9764680D01*
X3114903Y-9623609D01*
X3114755Y-9620908D01*
X5171858Y-9620908D01*
X5172432Y-9738370D01*
X5175424Y-9823008D01*
X5182047Y-9884348D01*
X5193513Y-9931919D01*
X5211037Y-9975248D01*
X5219058Y-9991633D01*
X5257179Y-10055982D01*
X5301390Y-10102047D01*
X5358952Y-10132438D01*
X5437129Y-10149764D01*
X5543183Y-10156637D01*
X5676095Y-10155866D01*
X5937177Y-10149708D01*
X6020340Y-10060495D01*
X6079592Y-9996933D01*
X6272002Y-9996933D01*
X6280668Y-10065563D01*
X6315346Y-10117932D01*
X6336035Y-10134960D01*
X6363191Y-10146733D01*
X6404365Y-10154201D01*
X6467111Y-10158314D01*
X6558980Y-10160024D01*
X6651948Y-10160301D01*
X6772633Y-10159617D01*
X6858590Y-10156985D01*
X6917447Y-10151536D01*
X6956832Y-10142400D01*
X6984371Y-10128705D01*
X6994428Y-10121233D01*
X7036171Y-10064772D01*
X7043792Y-9999417D01*
X7020996Y-9935363D01*
X6971487Y-9882807D01*
X6898967Y-9851944D01*
X6896436Y-9851453D01*
X6826628Y-9838357D01*
X6819903Y-9503656D01*
X6815017Y-9349632D01*
X6805114Y-9234120D01*
X6786799Y-9153293D01*
X6756679Y-9103328D01*
X6711362Y-9080397D01*
X6647454Y-9080675D01*
X6561562Y-9100337D01*
X6483638Y-9124533D01*
X6407661Y-9153773D01*
X6344309Y-9185966D01*
X6310050Y-9211617D01*
X6277526Y-9275937D01*
X6279775Y-9343552D01*
X6311514Y-9403955D01*
X6367460Y-9446636D01*
X6435553Y-9461218D01*
X6506005Y-9461218D01*
X6506005Y-9649169D01*
X6506005Y-9837121D01*
X6422423Y-9850486D01*
X6346918Y-9879306D01*
X6295432Y-9931485D01*
X6272002Y-9996933D01*
X6079592Y-9996933D01*
X6103503Y-9971282D01*
X6103363Y-9626217D01*
X6102778Y-9494419D01*
X6100670Y-9397814D01*
X6096334Y-9329232D01*
X6089061Y-9281506D01*
X6078142Y-9247467D01*
X6063298Y-9220592D01*
X6021559Y-9165129D01*
X5976102Y-9126246D01*
X5918622Y-9101134D01*
X5840813Y-9086981D01*
X5734369Y-9080980D01*
X5648040Y-9080119D01*
X5535039Y-9081055D01*
X5455106Y-9084741D01*
X5398966Y-9092395D01*
X5357347Y-9105239D01*
X5323748Y-9122786D01*
X5267345Y-9166520D01*
X5226010Y-9223227D01*
X5197795Y-9299297D01*
X5180751Y-9401120D01*
X5172930Y-9535088D01*
X5171858Y-9620908D01*
X3114755Y-9620908D01*
X3109119Y-9517851D01*
X3097731Y-9440436D01*
X3079310Y-9384397D01*
X3052427Y-9342767D01*
X3024372Y-9315573D01*
X2984829Y-9292588D01*
X2914520Y-9260750D01*
X2823075Y-9223569D01*
X2720119Y-9184556D01*
X2615281Y-9147221D01*
X2518188Y-9115075D01*
X2438467Y-9091628D01*
X2385746Y-9080391D01*
X2378036Y-9079900D01*
X2332017Y-9087544D01*
X2256721Y-9108160D01*
X2161915Y-9138273D01*
X2057371Y-9174410D01*
X1952856Y-9213097D01*
X1858140Y-9250859D01*
X1782991Y-9284222D01*
X1743060Y-9305710D01*
X1702615Y-9339974D01*
X1672989Y-9387474D01*
X1652740Y-9454406D01*
X1640425Y-9546964D01*
X1634601Y-9671346D01*
X1633611Y-9775644D01*
X1633611Y-10070246D01*
X1416472Y-10150567D01*
X1318023Y-10187897D01*
X1225949Y-10224418D01*
X1152769Y-10255084D01*
X1120328Y-10269947D01*
X1072786Y-10296775D01*
X1036999Y-10327959D01*
X1011326Y-10369590D01*
X994125Y-10427759D01*
X983755Y-10508557D01*
X978575Y-10618076D01*
X976943Y-10762406D01*
X976898Y-10802237D01*
X-61134Y-10802237D01*
X-61134Y-8041869D01*
X13038918Y-8041869D01*
X26138969Y-8041869D01*
X27083818Y-9106381D01*
G37*
%TD*%
M02*
