%TF.GenerationSoftware,KiCad,Pcbnew,8.99.0-2433-g53022ab347*%
%TF.CreationDate,2024-09-29T16:09:48+02:00*%
%TF.ProjectId,BadgeTagNFC,42616467-6554-4616-974e-46432e6b6963,1.0*%
%TF.SameCoordinates,PX5058d90PY47868c0*%
%TF.FileFunction,Copper,L2,Bot*%
%TF.FilePolarity,Positive*%
%FSLAX46Y46*%
G04 Gerber Fmt 4.6, Leading zero omitted, Abs format (unit mm)*
G04 Created by KiCad (PCBNEW 8.99.0-2433-g53022ab347) date 2024-09-29 16:09:48*
%MOMM*%
%LPD*%
G01*
G04 APERTURE LIST*
G04 Aperture macros list*
%AMRoundRect*
0 Rectangle with rounded corners*
0 $1 Rounding radius*
0 $2 $3 $4 $5 $6 $7 $8 $9 X,Y pos of 4 corners*
0 Add a 4 corners polygon primitive as box body*
4,1,4,$2,$3,$4,$5,$6,$7,$8,$9,$2,$3,0*
0 Add four circle primitives for the rounded corners*
1,1,$1+$1,$2,$3*
1,1,$1+$1,$4,$5*
1,1,$1+$1,$6,$7*
1,1,$1+$1,$8,$9*
0 Add four rect primitives between the rounded corners*
20,1,$1+$1,$2,$3,$4,$5,0*
20,1,$1+$1,$4,$5,$6,$7,0*
20,1,$1+$1,$6,$7,$8,$9,0*
20,1,$1+$1,$8,$9,$2,$3,0*%
G04 Aperture macros list end*
%TA.AperFunction,ComponentPad*%
%ADD10O,1.727200X1.727200*%
%TD*%
%TA.AperFunction,ComponentPad*%
%ADD11R,1.727200X1.727200*%
%TD*%
%TA.AperFunction,ComponentPad*%
%ADD12C,1.727200*%
%TD*%
%TA.AperFunction,SMDPad,CuDef*%
%ADD13RoundRect,0.200000X-0.200000X-0.275000X0.200000X-0.275000X0.200000X0.275000X-0.200000X0.275000X0*%
%TD*%
%TA.AperFunction,SMDPad,CuDef*%
%ADD14RoundRect,0.225000X-0.225000X-0.250000X0.225000X-0.250000X0.225000X0.250000X-0.225000X0.250000X0*%
%TD*%
%TA.AperFunction,SMDPad,CuDef*%
%ADD15RoundRect,0.150000X0.725000X0.150000X-0.725000X0.150000X-0.725000X-0.150000X0.725000X-0.150000X0*%
%TD*%
%TA.AperFunction,ViaPad*%
%ADD16C,0.500000*%
%TD*%
%TA.AperFunction,Conductor*%
%ADD17C,0.200000*%
%TD*%
%TA.AperFunction,Conductor*%
%ADD18C,0.400000*%
%TD*%
G04 APERTURE END LIST*
D10*
%TO.P,X1,1,VCC*%
%TO.N,VCC*%
X13270000Y-36750000D03*
D11*
%TO.P,X1,2,GND*%
%TO.N,GND*%
X13270000Y-39290000D03*
D10*
%TO.P,X1,3,SDA*%
%TO.N,SDA*%
X15810000Y-36750000D03*
%TO.P,X1,4,SCL*%
%TO.N,SCL*%
X15810000Y-39290000D03*
D12*
%TO.P,X1,5,GPIO1*%
%TO.N,unconnected-(X1-GPIO1-Pad5)*%
X18350000Y-36750000D03*
%TO.P,X1,6,GPIO2*%
%TO.N,FieldDetect*%
X18350000Y-39290000D03*
%TD*%
D13*
%TO.P,R1,1*%
%TO.N,VCC*%
X14925000Y-22700000D03*
%TO.P,R1,2*%
%TO.N,FieldDetect*%
X16575000Y-22700000D03*
%TD*%
D14*
%TO.P,C1,1*%
%TO.N,VCC*%
X14974999Y-21200000D03*
%TO.P,C1,2*%
%TO.N,GND*%
X16525001Y-21200000D03*
%TD*%
D15*
%TO.P,U1,1,LA*%
%TO.N,/NTAG NFC/COIL*%
X18325000Y-15795000D03*
%TO.P,U1,2,VSS*%
%TO.N,GND*%
X18325000Y-17065000D03*
%TO.P,U1,3,SCL*%
%TO.N,SCL*%
X18325000Y-18335000D03*
%TO.P,U1,4,FD*%
%TO.N,FieldDetect*%
X18325000Y-19605000D03*
%TO.P,U1,5,SDA*%
%TO.N,SDA*%
X13175000Y-19605000D03*
%TO.P,U1,6,VCC*%
%TO.N,VCC*%
X13175000Y-18335000D03*
%TO.P,U1,7,Vout*%
%TO.N,/NTAG NFC/VOUT*%
X13175000Y-17065000D03*
%TO.P,U1,8,LB*%
%TO.N,/NTAG NFC/COIL*%
X13175000Y-15795000D03*
%TD*%
D16*
%TO.N,/NTAG NFC/COIL*%
X13150000Y-14500000D03*
X13150000Y-7700000D03*
%TD*%
D17*
%TO.N,VCC*%
X13175000Y-18335000D02*
X14460000Y-18335000D01*
X14974999Y-18849999D02*
X14974999Y-21200000D01*
X12000000Y-35480000D02*
X13270000Y-36750000D01*
X12000000Y-18525000D02*
X12000000Y-35480000D01*
X12190000Y-18335000D02*
X12000000Y-18525000D01*
X13175000Y-18335000D02*
X12190000Y-18335000D01*
X14974999Y-21200000D02*
X14974999Y-22650001D01*
X14974999Y-22650001D02*
X14925000Y-22700000D01*
X14460000Y-18335000D02*
X14974999Y-18849999D01*
%TO.N,GND*%
X11575000Y-37595000D02*
X13270000Y-39290000D01*
X18325000Y-17065000D02*
X17035000Y-17065000D01*
X12215000Y-17735000D02*
X11575000Y-18375000D01*
X16365000Y-17735000D02*
X12215000Y-17735000D01*
X16525001Y-17574999D02*
X16365000Y-17735000D01*
X17035000Y-17065000D02*
X16525001Y-17574999D01*
X11575000Y-18375000D02*
X11575000Y-37595000D01*
X16525001Y-17574999D02*
X16525001Y-21200000D01*
D18*
%TO.N,/NTAG NFC/COIL*%
X26550000Y-10700000D02*
X16550000Y-10700000D01*
X16950000Y-11700000D02*
X15950000Y-12700000D01*
X1950000Y-7700000D02*
X13150000Y-7700000D01*
X28550000Y-8700000D02*
X15750000Y-8700000D01*
X7950000Y-42300000D02*
X23550000Y-42300000D01*
X3950000Y-9700000D02*
X3950000Y-46300000D01*
X15350000Y-7700000D02*
X14350000Y-8700000D01*
X16150000Y-9700000D02*
X15150000Y-10700000D01*
X14750000Y-9700000D02*
X3950000Y-9700000D01*
X15550000Y-11700000D02*
X5950000Y-11700000D01*
X29550000Y-7700000D02*
X15350000Y-7700000D01*
X27550000Y-46300000D02*
X27550000Y-9700000D01*
X28550000Y-47300000D02*
X28550000Y-8700000D01*
X4950000Y-45300000D02*
X26550000Y-45300000D01*
X18325000Y-13925000D02*
X18325000Y-15795000D01*
X6950000Y-43300000D02*
X24550000Y-43300000D01*
X15950000Y-12700000D02*
X6950000Y-12700000D01*
X3950000Y-46300000D02*
X27550000Y-46300000D01*
X6950000Y-12700000D02*
X6950000Y-43300000D01*
X15150000Y-10700000D02*
X4950000Y-10700000D01*
X15750000Y-8700000D02*
X14750000Y-9700000D01*
X24550000Y-43300000D02*
X24550000Y-12700000D01*
X18550000Y-13700000D02*
X18325000Y-13925000D01*
X1950000Y-48300000D02*
X29550000Y-48300000D01*
X5950000Y-11700000D02*
X5950000Y-44300000D01*
X13150000Y-14500000D02*
X13150000Y-15770000D01*
X17350000Y-12700000D02*
X16350000Y-13700000D01*
X14350000Y-8700000D02*
X2950000Y-8700000D01*
X2950000Y-8700000D02*
X2950000Y-47300000D01*
X4950000Y-10700000D02*
X4950000Y-45300000D01*
X27550000Y-9700000D02*
X16150000Y-9700000D01*
X24550000Y-12700000D02*
X17350000Y-12700000D01*
X1950000Y-7700000D02*
X1950000Y-48300000D01*
X23550000Y-13700000D02*
X18550000Y-13700000D01*
X16350000Y-13700000D02*
X7950000Y-13700000D01*
X25550000Y-44300000D02*
X25550000Y-11700000D01*
X29550000Y-48300000D02*
X29550000Y-7700000D01*
X16550000Y-10700000D02*
X15550000Y-11700000D01*
X25550000Y-11700000D02*
X16950000Y-11700000D01*
X2950000Y-47300000D02*
X28550000Y-47300000D01*
X13150000Y-15770000D02*
X13175000Y-15795000D01*
X26550000Y-45300000D02*
X26550000Y-10700000D01*
X23550000Y-42300000D02*
X23550000Y-13700000D01*
X7950000Y-13700000D02*
X7950000Y-42300000D01*
X5950000Y-44300000D02*
X25550000Y-44300000D01*
D17*
%TO.N,SCL*%
X18325000Y-18335000D02*
X19410000Y-18335000D01*
X18950000Y-40725000D02*
X17245000Y-40725000D01*
X19775000Y-18700000D02*
X19775000Y-39900000D01*
X17245000Y-40725000D02*
X15810000Y-39290000D01*
X19775000Y-39900000D02*
X18950000Y-40725000D01*
X19410000Y-18335000D02*
X19775000Y-18700000D01*
%TO.N,FieldDetect*%
X17075000Y-24050000D02*
X17075000Y-38015000D01*
X18325000Y-21900000D02*
X17525000Y-22700000D01*
X17075000Y-38015000D02*
X18350000Y-39290000D01*
X16575000Y-22700000D02*
X16575000Y-23550000D01*
X17525000Y-22700000D02*
X16575000Y-22700000D01*
X16575000Y-23550000D02*
X17075000Y-24050000D01*
X18325000Y-19605000D02*
X18325000Y-21900000D01*
%TO.N,SDA*%
X13175000Y-34150000D02*
X15775000Y-36750000D01*
X15775000Y-36750000D02*
X15810000Y-36750000D01*
X13175000Y-19605000D02*
X13175000Y-34150000D01*
%TD*%
M02*
